<mxfile host="app.diagrams.net" modified="2024-01-17T02:21:38.159Z" agent="Mozilla/5.0 (Windows NT 10.0; Win64; x64) AppleWebKit/537.36 (KHTML, like Gecko) Chrome/120.0.0.0 Safari/537.36 Edg/120.0.0.0" etag="_uIlwNAijghASZGNCC8m" version="22.1.18" type="github" pages="5">
  <diagram id="prtHgNgQTEPvFCAcTncT" name="Condoms">
    <mxGraphModel dx="1188" dy="654" grid="1" gridSize="10" guides="1" tooltips="1" connect="1" arrows="1" fold="1" page="1" pageScale="1" pageWidth="827" pageHeight="1169" math="0" shadow="0">
      <root>
        <mxCell id="0" />
        <mxCell id="1" parent="0" />
        <mxCell id="dNxyNK7c78bLwvsdeMH5-19" value="Condom" style="swimlane;html=1;childLayout=stackLayout;resizeParent=1;resizeParentMax=0;horizontal=0;startSize=20;horizontalStack=0;fontFamily=Tahoma;strokeColor=#666666;" parent="1" vertex="1">
          <mxGeometry x="40" y="200" width="1220" height="900" as="geometry" />
        </mxCell>
        <mxCell id="dNxyNK7c78bLwvsdeMH5-20" value="กองทุน" style="swimlane;html=1;startSize=20;horizontal=0;fontFamily=Tahoma;strokeColor=#666666;" parent="dNxyNK7c78bLwvsdeMH5-19" vertex="1">
          <mxGeometry x="20" width="1200" height="120" as="geometry" />
        </mxCell>
        <mxCell id="vW1-sG7XQybwzOpCdIC6-39" style="edgeStyle=orthogonalEdgeStyle;rounded=0;orthogonalLoop=1;jettySize=auto;html=1;" parent="dNxyNK7c78bLwvsdeMH5-20" source="vW1-sG7XQybwzOpCdIC6-2" target="vW1-sG7XQybwzOpCdIC6-4" edge="1">
          <mxGeometry relative="1" as="geometry" />
        </mxCell>
        <mxCell id="vW1-sG7XQybwzOpCdIC6-2" value="Start" style="rounded=1;whiteSpace=wrap;html=1;arcSize=50;" parent="dNxyNK7c78bLwvsdeMH5-20" vertex="1">
          <mxGeometry x="40" y="40" width="90" height="40" as="geometry" />
        </mxCell>
        <mxCell id="vW1-sG7XQybwzOpCdIC6-3" style="edgeStyle=orthogonalEdgeStyle;rounded=0;orthogonalLoop=1;jettySize=auto;html=1;exitX=0.5;exitY=1;exitDx=0;exitDy=0;" parent="dNxyNK7c78bLwvsdeMH5-20" source="vW1-sG7XQybwzOpCdIC6-2" target="vW1-sG7XQybwzOpCdIC6-2" edge="1">
          <mxGeometry relative="1" as="geometry" />
        </mxCell>
        <mxCell id="vW1-sG7XQybwzOpCdIC6-4" value="ให้งบประมาณสนับสนุนการจัดซื้อถุงยางและสารหล่อลื่น" style="rounded=0;whiteSpace=wrap;html=1;" parent="dNxyNK7c78bLwvsdeMH5-20" vertex="1">
          <mxGeometry x="160" y="30" width="160" height="60" as="geometry" />
        </mxCell>
        <mxCell id="HEFYjMU2fkNLsEg8FPOW-6" value="? งบจัดซื้อมาจากไหน" style="text;html=1;align=center;verticalAlign=middle;resizable=0;points=[];autosize=1;strokeColor=#b85450;fillColor=#f8cecc;" parent="dNxyNK7c78bLwvsdeMH5-20" vertex="1">
          <mxGeometry x="330" y="60" width="130" height="30" as="geometry" />
        </mxCell>
        <mxCell id="dQZI6s-5HtwPCw9mTZus-6" value="? รายงานผลการเบิกจ่าย&lt;br style=&quot;border-color: var(--border-color);&quot;&gt;ถุงยางอนามัยและสารหล่อลื่น" style="rounded=1;whiteSpace=wrap;html=1;arcSize=50;fillColor=#f8cecc;strokeColor=#b85450;" parent="dNxyNK7c78bLwvsdeMH5-20" vertex="1">
          <mxGeometry x="909" y="40" width="200" height="40" as="geometry" />
        </mxCell>
        <mxCell id="vW1-sG7XQybwzOpCdIC6-5" value="ก. ป้องกัน" style="swimlane;html=1;startSize=20;horizontal=0;fontFamily=Tahoma;strokeColor=#666666;" parent="dNxyNK7c78bLwvsdeMH5-19" vertex="1">
          <mxGeometry x="20" y="120" width="1200" height="170" as="geometry" />
        </mxCell>
        <mxCell id="vW1-sG7XQybwzOpCdIC6-7" style="edgeStyle=orthogonalEdgeStyle;rounded=0;orthogonalLoop=1;jettySize=auto;html=1;exitX=0.5;exitY=1;exitDx=0;exitDy=0;" parent="vW1-sG7XQybwzOpCdIC6-5" edge="1">
          <mxGeometry relative="1" as="geometry">
            <mxPoint x="85" y="80" as="sourcePoint" />
            <mxPoint x="85" y="80" as="targetPoint" />
          </mxGeometry>
        </mxCell>
        <mxCell id="vW1-sG7XQybwzOpCdIC6-33" style="edgeStyle=orthogonalEdgeStyle;rounded=0;orthogonalLoop=1;jettySize=auto;html=1;entryX=0;entryY=0.5;entryDx=0;entryDy=0;exitX=1;exitY=0.5;exitDx=0;exitDy=0;" parent="vW1-sG7XQybwzOpCdIC6-5" source="vW1-sG7XQybwzOpCdIC6-44" target="vW1-sG7XQybwzOpCdIC6-11" edge="1">
          <mxGeometry relative="1" as="geometry">
            <mxPoint x="940" y="95" as="sourcePoint" />
          </mxGeometry>
        </mxCell>
        <mxCell id="vW1-sG7XQybwzOpCdIC6-11" value="จัดสรรถุงยางอนามัยและสารหล่อลื่น ให้กับหน่วยงานที่ขอรับการสนับสนุน" style="rounded=0;whiteSpace=wrap;html=1;" parent="vW1-sG7XQybwzOpCdIC6-5" vertex="1">
          <mxGeometry x="849" y="85" width="191" height="60" as="geometry" />
        </mxCell>
        <mxCell id="vW1-sG7XQybwzOpCdIC6-41" value="&amp;nbsp;สร้างระบบการเบิกจ่ายฯ&lt;br&gt;+สร้าง Stock ในระบบ" style="shape=step;perimeter=stepPerimeter;whiteSpace=wrap;html=1;fixedSize=1;" parent="vW1-sG7XQybwzOpCdIC6-5" vertex="1">
          <mxGeometry x="160" y="90" width="160" height="50" as="geometry" />
        </mxCell>
        <mxCell id="vW1-sG7XQybwzOpCdIC6-44" value="เรียกดูข้อมูลและพิจารณา&lt;br style=&quot;border-color: var(--border-color);&quot;&gt;การขอสนับสนุนฯ จากหน่วยบริการ" style="shape=step;perimeter=stepPerimeter;whiteSpace=wrap;html=1;fixedSize=1;" parent="vW1-sG7XQybwzOpCdIC6-5" vertex="1">
          <mxGeometry x="597" y="90" width="208" height="50" as="geometry" />
        </mxCell>
        <mxCell id="S7jssSFuQJf6Cd30hFzG-4" style="edgeStyle=orthogonalEdgeStyle;rounded=0;orthogonalLoop=1;jettySize=auto;html=1;exitX=1;exitY=0.5;exitDx=0;exitDy=0;entryX=0;entryY=0.5;entryDx=0;entryDy=0;dashed=1;" edge="1" parent="vW1-sG7XQybwzOpCdIC6-5" source="HEFYjMU2fkNLsEg8FPOW-3" target="S7jssSFuQJf6Cd30hFzG-3">
          <mxGeometry relative="1" as="geometry" />
        </mxCell>
        <mxCell id="HEFYjMU2fkNLsEg8FPOW-3" value="สรุปผลการรายงานผลการเบิกจ่าย&lt;br&gt;ถุงยางอนามัยและสารหล่อลื่น" style="shape=step;perimeter=stepPerimeter;whiteSpace=wrap;html=1;fixedSize=1;" parent="vW1-sG7XQybwzOpCdIC6-5" vertex="1">
          <mxGeometry x="597" y="25" width="212" height="55" as="geometry" />
        </mxCell>
        <mxCell id="S7jssSFuQJf6Cd30hFzG-3" value="?&amp;nbsp;เอาไปทำอะไรต่อ วิเคราะห์&lt;br&gt;หรือแค่รวมตัวเลข ส่งให้ใคร" style="rounded=1;whiteSpace=wrap;html=1;arcSize=50;fillColor=#f8cecc;strokeColor=#b85450;" vertex="1" parent="vW1-sG7XQybwzOpCdIC6-5">
          <mxGeometry x="909" y="32.5" width="200" height="40" as="geometry" />
        </mxCell>
        <mxCell id="iwgdynvejmEAEGlhMUtL-3" style="edgeStyle=orthogonalEdgeStyle;rounded=0;orthogonalLoop=1;jettySize=auto;html=1;" edge="1" parent="vW1-sG7XQybwzOpCdIC6-5" source="iwgdynvejmEAEGlhMUtL-1" target="vW1-sG7XQybwzOpCdIC6-41">
          <mxGeometry relative="1" as="geometry" />
        </mxCell>
        <mxCell id="iwgdynvejmEAEGlhMUtL-1" value="&lt;div&gt;การจัดซื้อจัดจ้างถุงยางอนามัยและสารหล่อลื่น&lt;/div&gt;" style="rounded=0;whiteSpace=wrap;html=1;" vertex="1" parent="vW1-sG7XQybwzOpCdIC6-5">
          <mxGeometry x="160" y="24" width="160" height="35" as="geometry" />
        </mxCell>
        <mxCell id="S7jssSFuQJf6Cd30hFzG-1" value="กลุ่ม ข้อมูล" style="swimlane;html=1;startSize=20;horizontal=0;fontFamily=Tahoma;strokeColor=#666666;" vertex="1" parent="dNxyNK7c78bLwvsdeMH5-19">
          <mxGeometry x="20" y="290" width="1200" height="140" as="geometry" />
        </mxCell>
        <mxCell id="vW1-sG7XQybwzOpCdIC6-21" value="condom.ddc" style="shape=cylinder3;whiteSpace=wrap;html=1;boundedLbl=1;backgroundOutline=1;size=10;" parent="S7jssSFuQJf6Cd30hFzG-1" vertex="1">
          <mxGeometry x="371" y="35" width="136" height="70" as="geometry" />
        </mxCell>
        <mxCell id="dNxyNK7c78bLwvsdeMH5-21" value="NAP สปสช." style="swimlane;html=1;startSize=20;horizontal=0;fontFamily=Tahoma;strokeColor=#666666;" parent="dNxyNK7c78bLwvsdeMH5-19" vertex="1">
          <mxGeometry x="20" y="430" width="1200" height="120" as="geometry">
            <mxRectangle x="20" y="240" width="610" height="30" as="alternateBounds" />
          </mxGeometry>
        </mxCell>
        <mxCell id="vW1-sG7XQybwzOpCdIC6-28" value="NAP+" style="shape=cylinder3;whiteSpace=wrap;html=1;boundedLbl=1;backgroundOutline=1;size=10;" parent="dNxyNK7c78bLwvsdeMH5-21" vertex="1">
          <mxGeometry x="490" y="25" width="136" height="70" as="geometry" />
        </mxCell>
        <mxCell id="HEFYjMU2fkNLsEg8FPOW-1" value="ชุดสิทธิประโยชน์&lt;br&gt;การขอชดเชยถุงยางอนามัย" style="rounded=0;whiteSpace=wrap;html=1;" parent="dNxyNK7c78bLwvsdeMH5-21" vertex="1">
          <mxGeometry x="190" y="30" width="160" height="60" as="geometry" />
        </mxCell>
        <mxCell id="jA2d7YymJRjin36Otq6Y-1" style="edgeStyle=orthogonalEdgeStyle;rounded=0;orthogonalLoop=1;jettySize=auto;html=1;entryX=0;entryY=0.5;entryDx=0;entryDy=0;shadow=0;noJump=0;comic=0;enumerate=0;orthogonal=0;flowAnimation=0;ignoreEdge=0;snapToPoint=0;fixDash=0;backgroundOutline=0;metaEdit=0;jumpStyle=arc;exitX=1;exitY=0.5;exitDx=0;exitDy=0;entryPerimeter=0;" parent="dNxyNK7c78bLwvsdeMH5-21" source="HEFYjMU2fkNLsEg8FPOW-1" target="vW1-sG7XQybwzOpCdIC6-28" edge="1">
          <mxGeometry relative="1" as="geometry">
            <mxPoint x="360" y="60" as="sourcePoint" />
            <mxPoint x="354" y="421" as="targetPoint" />
          </mxGeometry>
        </mxCell>
        <mxCell id="dNxyNK7c78bLwvsdeMH5-22" value="สคร./สสจ." style="swimlane;html=1;startSize=20;horizontal=0;fontFamily=Tahoma;strokeColor=#666666;" parent="dNxyNK7c78bLwvsdeMH5-19" vertex="1">
          <mxGeometry x="20" y="550" width="1200" height="120" as="geometry" />
        </mxCell>
        <mxCell id="vW1-sG7XQybwzOpCdIC6-45" value="ติดตามสถานการณ์&lt;br&gt;การเบิกจ่ายถุงยางฯ รายพื้นที่ ?" style="shape=step;perimeter=stepPerimeter;whiteSpace=wrap;html=1;fixedSize=1;fillColor=#f8cecc;strokeColor=#b85450;" parent="dNxyNK7c78bLwvsdeMH5-22" vertex="1">
          <mxGeometry x="601" y="27.5" width="200" height="65" as="geometry" />
        </mxCell>
        <mxCell id="vW1-sG7XQybwzOpCdIC6-49" value="ขอเบิกสนับสนุนถุงยางและสารหล่อลื่น+&lt;br&gt;รายงานยอดการใช้งานปีปัจจุบัน ยอดคงเหลือ" style="shape=step;perimeter=stepPerimeter;whiteSpace=wrap;html=1;fixedSize=1;" parent="dNxyNK7c78bLwvsdeMH5-22" vertex="1">
          <mxGeometry x="60" y="30" width="249" height="60" as="geometry" />
        </mxCell>
        <mxCell id="N4G9scYONlkcWSuko7sz-1" value="ดูได้จากในระบบ?" style="text;html=1;align=center;verticalAlign=middle;resizable=0;points=[];autosize=1;strokeColor=none;fillColor=none;" parent="dNxyNK7c78bLwvsdeMH5-22" vertex="1">
          <mxGeometry x="640" y="90" width="110" height="30" as="geometry" />
        </mxCell>
        <mxCell id="EJFhG_xvfswVd12eMsBA-1" value="หน่วยบริการ" style="swimlane;html=1;startSize=20;horizontal=0;fontFamily=Tahoma;strokeColor=#666666;" parent="dNxyNK7c78bLwvsdeMH5-19" vertex="1">
          <mxGeometry x="20" y="670" width="1200" height="120" as="geometry" />
        </mxCell>
        <mxCell id="vW1-sG7XQybwzOpCdIC6-31" value="รับถุงยางฯ เพื่อไปจัดบริการถุงยางอนามัย&lt;br&gt;และสารหล่อลื่นให้กับกลุ่มเป้าหมาย" style="rounded=0;whiteSpace=wrap;html=1;" parent="EJFhG_xvfswVd12eMsBA-1" vertex="1">
          <mxGeometry x="835" y="30" width="219" height="60" as="geometry" />
        </mxCell>
        <mxCell id="vW1-sG7XQybwzOpCdIC6-46" value="บันทึกการจ่ายถุงยางฯ&lt;br style=&quot;border-color: var(--border-color);&quot;&gt;ในระบบ NAP" style="shape=step;perimeter=stepPerimeter;whiteSpace=wrap;html=1;fixedSize=1;" parent="EJFhG_xvfswVd12eMsBA-1" vertex="1">
          <mxGeometry x="475" y="30" width="166" height="60" as="geometry" />
        </mxCell>
        <mxCell id="vW1-sG7XQybwzOpCdIC6-47" value="ขอเบิกสนับสนุนถุงยางและสารหล่อลื่น+&lt;br style=&quot;border-color: var(--border-color);&quot;&gt;รายงานยอดการใช้งานปีปัจจุบัน ยอดคงเหลือ" style="shape=step;perimeter=stepPerimeter;whiteSpace=wrap;html=1;fixedSize=1;" parent="EJFhG_xvfswVd12eMsBA-1" vertex="1">
          <mxGeometry x="60" y="30" width="249" height="60" as="geometry" />
        </mxCell>
        <mxCell id="vW1-sG7XQybwzOpCdIC6-22" style="edgeStyle=orthogonalEdgeStyle;rounded=0;orthogonalLoop=1;jettySize=auto;html=1;entryX=0.5;entryY=1;entryDx=0;entryDy=0;entryPerimeter=0;exitX=1;exitY=0.5;exitDx=0;exitDy=0;jumpStyle=arc;" parent="dNxyNK7c78bLwvsdeMH5-19" source="vW1-sG7XQybwzOpCdIC6-48" target="vW1-sG7XQybwzOpCdIC6-21" edge="1">
          <mxGeometry relative="1" as="geometry">
            <mxPoint x="340" y="660" as="sourcePoint" />
          </mxGeometry>
        </mxCell>
        <mxCell id="vW1-sG7XQybwzOpCdIC6-23" style="edgeStyle=orthogonalEdgeStyle;rounded=0;orthogonalLoop=1;jettySize=auto;html=1;entryX=0.5;entryY=1;entryDx=0;entryDy=0;entryPerimeter=0;exitX=1;exitY=0.5;exitDx=0;exitDy=0;jumpStyle=arc;" parent="dNxyNK7c78bLwvsdeMH5-19" source="vW1-sG7XQybwzOpCdIC6-47" target="vW1-sG7XQybwzOpCdIC6-21" edge="1">
          <mxGeometry relative="1" as="geometry">
            <mxPoint x="340" y="530" as="sourcePoint" />
          </mxGeometry>
        </mxCell>
        <mxCell id="vW1-sG7XQybwzOpCdIC6-25" style="edgeStyle=orthogonalEdgeStyle;rounded=0;orthogonalLoop=1;jettySize=auto;html=1;" parent="dNxyNK7c78bLwvsdeMH5-19" source="vW1-sG7XQybwzOpCdIC6-4" target="iwgdynvejmEAEGlhMUtL-1" edge="1">
          <mxGeometry relative="1" as="geometry">
            <mxPoint x="260" y="150" as="targetPoint" />
          </mxGeometry>
        </mxCell>
        <mxCell id="vW1-sG7XQybwzOpCdIC6-29" style="edgeStyle=orthogonalEdgeStyle;rounded=0;orthogonalLoop=1;jettySize=auto;html=1;entryX=0.5;entryY=1;entryDx=0;entryDy=0;entryPerimeter=0;exitX=0.5;exitY=0;exitDx=0;exitDy=0;" parent="dNxyNK7c78bLwvsdeMH5-19" source="vW1-sG7XQybwzOpCdIC6-46" target="vW1-sG7XQybwzOpCdIC6-28" edge="1">
          <mxGeometry relative="1" as="geometry">
            <mxPoint x="577" y="510" as="sourcePoint" />
          </mxGeometry>
        </mxCell>
        <mxCell id="vW1-sG7XQybwzOpCdIC6-34" style="edgeStyle=orthogonalEdgeStyle;rounded=0;orthogonalLoop=1;jettySize=auto;html=1;exitX=0.5;exitY=1;exitDx=0;exitDy=0;" parent="dNxyNK7c78bLwvsdeMH5-19" source="vW1-sG7XQybwzOpCdIC6-11" target="vW1-sG7XQybwzOpCdIC6-31" edge="1">
          <mxGeometry relative="1" as="geometry" />
        </mxCell>
        <mxCell id="vW1-sG7XQybwzOpCdIC6-35" style="edgeStyle=orthogonalEdgeStyle;rounded=0;orthogonalLoop=1;jettySize=auto;html=1;exitX=1;exitY=0.5;exitDx=0;exitDy=0;" parent="dNxyNK7c78bLwvsdeMH5-19" source="vW1-sG7XQybwzOpCdIC6-11" target="vW1-sG7XQybwzOpCdIC6-32" edge="1">
          <mxGeometry relative="1" as="geometry" />
        </mxCell>
        <mxCell id="vW1-sG7XQybwzOpCdIC6-38" style="edgeStyle=orthogonalEdgeStyle;rounded=0;orthogonalLoop=1;jettySize=auto;html=1;entryX=0.5;entryY=0;entryDx=0;entryDy=0;" parent="dNxyNK7c78bLwvsdeMH5-19" source="vW1-sG7XQybwzOpCdIC6-21" target="vW1-sG7XQybwzOpCdIC6-45" edge="1">
          <mxGeometry relative="1" as="geometry">
            <mxPoint x="712" y="390" as="targetPoint" />
          </mxGeometry>
        </mxCell>
        <mxCell id="0nTFtlL1Q_DYryvuO4ni-4" value="&amp;nbsp;ผ่านหน้าเว็บ&amp;nbsp;" style="edgeLabel;html=1;align=center;verticalAlign=middle;resizable=0;points=[];" parent="vW1-sG7XQybwzOpCdIC6-38" vertex="1" connectable="0">
          <mxGeometry x="-0.4413" relative="1" as="geometry">
            <mxPoint as="offset" />
          </mxGeometry>
        </mxCell>
        <mxCell id="vW1-sG7XQybwzOpCdIC6-40" style="edgeStyle=orthogonalEdgeStyle;rounded=0;orthogonalLoop=1;jettySize=auto;html=1;exitX=1;exitY=0.5;exitDx=0;exitDy=0;exitPerimeter=0;entryX=0.25;entryY=0;entryDx=0;entryDy=0;" parent="dNxyNK7c78bLwvsdeMH5-19" source="vW1-sG7XQybwzOpCdIC6-28" target="vW1-sG7XQybwzOpCdIC6-45" edge="1">
          <mxGeometry relative="1" as="geometry">
            <mxPoint x="721" y="300" as="targetPoint" />
          </mxGeometry>
        </mxCell>
        <mxCell id="a_b8Sz37suzuglazINzR-1" value="&amp;nbsp;NAP Report&amp;nbsp;" style="edgeLabel;html=1;align=center;verticalAlign=middle;resizable=0;points=[];" parent="vW1-sG7XQybwzOpCdIC6-40" vertex="1" connectable="0">
          <mxGeometry x="-0.1365" y="-2" relative="1" as="geometry">
            <mxPoint x="1" y="16" as="offset" />
          </mxGeometry>
        </mxCell>
        <mxCell id="EJFhG_xvfswVd12eMsBA-5" value="NGO ภายนอก" style="swimlane;html=1;startSize=20;horizontal=0;fontFamily=Tahoma;strokeColor=#666666;" parent="dNxyNK7c78bLwvsdeMH5-19" vertex="1">
          <mxGeometry x="20" y="790" width="1200" height="110" as="geometry" />
        </mxCell>
        <mxCell id="vW1-sG7XQybwzOpCdIC6-32" value="รับถุงยางฯ เพื่อไปจัดบริการถุงยางอนามัย&lt;br style=&quot;border-color: var(--border-color);&quot;&gt;และสารหล่อลื่นให้กับกลุ่มเป้าหมาย" style="rounded=0;whiteSpace=wrap;html=1;" parent="EJFhG_xvfswVd12eMsBA-5" vertex="1">
          <mxGeometry x="961" y="25" width="220" height="60" as="geometry" />
        </mxCell>
        <mxCell id="vW1-sG7XQybwzOpCdIC6-48" value="ขอเบิกสนับสนุนถุงยางและสารหล่อลื่น+&lt;br style=&quot;border-color: var(--border-color);&quot;&gt;รายงานยอดการใช้งานปีปัจจุบัน ยอดคงเหลือ" style="shape=step;perimeter=stepPerimeter;whiteSpace=wrap;html=1;fixedSize=1;" parent="EJFhG_xvfswVd12eMsBA-5" vertex="1">
          <mxGeometry x="60" y="30" width="249" height="60" as="geometry" />
        </mxCell>
        <mxCell id="vW1-sG7XQybwzOpCdIC6-50" style="edgeStyle=orthogonalEdgeStyle;rounded=0;orthogonalLoop=1;jettySize=auto;html=1;entryX=0.5;entryY=1;entryDx=0;entryDy=0;entryPerimeter=0;jumpStyle=arc;" parent="dNxyNK7c78bLwvsdeMH5-19" source="vW1-sG7XQybwzOpCdIC6-49" target="vW1-sG7XQybwzOpCdIC6-21" edge="1">
          <mxGeometry relative="1" as="geometry" />
        </mxCell>
        <mxCell id="dQZI6s-5HtwPCw9mTZus-10" style="edgeStyle=orthogonalEdgeStyle;rounded=0;orthogonalLoop=1;jettySize=auto;html=1;entryX=0;entryY=0.5;entryDx=0;entryDy=0;dashed=1;" parent="dNxyNK7c78bLwvsdeMH5-19" source="HEFYjMU2fkNLsEg8FPOW-3" target="dQZI6s-5HtwPCw9mTZus-6" edge="1">
          <mxGeometry relative="1" as="geometry" />
        </mxCell>
        <mxCell id="vW1-sG7XQybwzOpCdIC6-27" style="edgeStyle=elbowEdgeStyle;rounded=0;orthogonalLoop=1;jettySize=auto;html=1;entryX=0;entryY=0.5;entryDx=0;entryDy=0;exitX=0.855;exitY=0;exitDx=0;exitDy=2.9;exitPerimeter=0;" parent="dNxyNK7c78bLwvsdeMH5-19" source="vW1-sG7XQybwzOpCdIC6-21" target="vW1-sG7XQybwzOpCdIC6-44" edge="1">
          <mxGeometry relative="1" as="geometry">
            <mxPoint x="800" y="215" as="targetPoint" />
            <Array as="points">
              <mxPoint x="507" y="280" />
            </Array>
          </mxGeometry>
        </mxCell>
        <mxCell id="vW1-sG7XQybwzOpCdIC6-26" style="edgeStyle=orthogonalEdgeStyle;rounded=0;orthogonalLoop=1;jettySize=auto;html=1;exitX=1;exitY=0.5;exitDx=0;exitDy=0;entryX=0;entryY=0.5;entryDx=0;entryDy=0;entryPerimeter=0;" parent="dNxyNK7c78bLwvsdeMH5-19" source="vW1-sG7XQybwzOpCdIC6-41" target="vW1-sG7XQybwzOpCdIC6-21" edge="1">
          <mxGeometry relative="1" as="geometry">
            <mxPoint x="340" y="215" as="sourcePoint" />
          </mxGeometry>
        </mxCell>
        <mxCell id="S7jssSFuQJf6Cd30hFzG-2" style="edgeStyle=elbowEdgeStyle;rounded=0;orthogonalLoop=1;jettySize=auto;html=1;exitX=0.5;exitY=0;exitDx=0;exitDy=0;exitPerimeter=0;entryX=0;entryY=0.5;entryDx=0;entryDy=0;" edge="1" parent="dNxyNK7c78bLwvsdeMH5-19" source="vW1-sG7XQybwzOpCdIC6-21" target="HEFYjMU2fkNLsEg8FPOW-3">
          <mxGeometry relative="1" as="geometry">
            <Array as="points">
              <mxPoint x="459" y="250" />
            </Array>
          </mxGeometry>
        </mxCell>
        <mxCell id="dQZI6s-5HtwPCw9mTZus-2" value="มาตรการ:&amp;nbsp;&lt;span style=&quot;font-weight: normal;&quot;&gt;ลดจำนวนผู้ติดเชื้อเอชไอวีรายใหม่ให้เหลือปีละไม่เกิน 1,000 คน ในยุทธศาสตร์แห่งชาติว่าด้วยการยุติปัญหาเอดส์ พ.ศ. 2560-2573&lt;/span&gt;" style="text;html=1;strokeColor=none;fillColor=none;align=left;verticalAlign=top;whiteSpace=wrap;rounded=0;fontFamily=Tahoma;fontStyle=1;fontSize=18;" parent="1" vertex="1">
          <mxGeometry x="40" y="70" width="1280" height="30" as="geometry" />
        </mxCell>
        <mxCell id="dQZI6s-5HtwPCw9mTZus-3" value="กลุ่มงาน:&amp;nbsp;&lt;span style=&quot;font-weight: normal;&quot;&gt;กลุ่มพัฒนาและส่งเสริมเทคโนโลยีการป้องกัน&lt;/span&gt;" style="text;html=1;strokeColor=none;fillColor=none;align=left;verticalAlign=top;whiteSpace=wrap;rounded=0;fontFamily=Tahoma;fontStyle=1;fontSize=18;" parent="1" vertex="1">
          <mxGeometry x="40" y="40" width="1280" height="30" as="geometry" />
        </mxCell>
        <mxCell id="dQZI6s-5HtwPCw9mTZus-4" value="กิจกรรมที่ดำเนินการ:&amp;nbsp;" style="text;html=1;strokeColor=none;fillColor=none;align=left;verticalAlign=top;whiteSpace=wrap;rounded=0;fontFamily=Tahoma;fontStyle=1;fontSize=18;" parent="1" vertex="1">
          <mxGeometry x="40" y="100" width="200" height="30" as="geometry" />
        </mxCell>
        <UserObject label="1. Condoms&amp;nbsp;สนับสนุนถุงยางอนามัยและสารหล่อลื่น&lt;br&gt;2.&amp;nbsp;PrEP การจ่ายยา PrEP ในกลุ่มประชากร&lt;br&gt;3.&amp;nbsp;Index partner testing&amp;nbsp;การให้บริการชวนคู่ของผู้ติดเชื้อเอชไอวีมาตรวจหาการติดเชื้อเอชไอวี&lt;br&gt;4.&amp;nbsp;Youth กลุ่มเยาวชน&amp;nbsp;" id="dQZI6s-5HtwPCw9mTZus-5">
          <mxCell style="text;html=1;strokeColor=none;fillColor=none;align=left;verticalAlign=top;whiteSpace=wrap;rounded=0;fontFamily=Tahoma;fontStyle=0;fontSize=18;" parent="1" vertex="1">
            <mxGeometry x="240" y="100" width="920" height="90" as="geometry" />
          </mxCell>
        </UserObject>
        <mxCell id="dQZI6s-5HtwPCw9mTZus-7" value="กระทำในระบบ" style="shape=step;perimeter=stepPerimeter;whiteSpace=wrap;html=1;fixedSize=1;" parent="1" vertex="1">
          <mxGeometry x="40" y="1155" width="120" height="40" as="geometry" />
        </mxCell>
        <mxCell id="dQZI6s-5HtwPCw9mTZus-8" value="กิจกรรม/การดำเนินการ" style="rounded=0;whiteSpace=wrap;html=1;" parent="1" vertex="1">
          <mxGeometry x="180" y="1155" width="130" height="40" as="geometry" />
        </mxCell>
        <mxCell id="dQZI6s-5HtwPCw9mTZus-9" value="ฐานข้อมูล" style="shape=cylinder3;whiteSpace=wrap;html=1;boundedLbl=1;backgroundOutline=1;size=10;" parent="1" vertex="1">
          <mxGeometry x="340" y="1150" width="100" height="50" as="geometry" />
        </mxCell>
        <mxCell id="yyZj5BJA8v-fTfeoFuPs-1" value="&lt;b&gt;แหล่งที่มาของข้อมูล&lt;/b&gt;&lt;br&gt;1. หน่วยบริการ/สคร./NGO บันทึกขอสนับสนุนฯ" style="text;html=1;strokeColor=none;fillColor=none;align=left;verticalAlign=top;whiteSpace=wrap;rounded=0;fontFamily=Tahoma;fontStyle=0;fontSize=18;" parent="1" vertex="1">
          <mxGeometry x="480" y="1130" width="440" height="90" as="geometry" />
        </mxCell>
        <mxCell id="yyZj5BJA8v-fTfeoFuPs-2" value="&lt;b&gt;แหล่งที่ไปของข้อมูล&lt;br&gt;&lt;/b&gt;1. กลุ่มป้องกันฯ ดึงข้อมูลจากในระบบเพื่อพิจารณาจัดสรร&lt;br&gt;2. กลุ่มป้องกันฯ&amp;nbsp;ดึงข้อมูลสรุปผลเพื่อรายงานโครงการ&lt;br&gt;3. ส่วนพื้นที่ ติดตาม ตรวจสอบยอดการสนับสนุนผ่านหน้าเว็บ" style="text;html=1;strokeColor=none;fillColor=none;align=left;verticalAlign=top;whiteSpace=wrap;rounded=0;fontFamily=Tahoma;fontStyle=0;fontSize=18;" parent="1" vertex="1">
          <mxGeometry x="940" y="1130" width="440" height="90" as="geometry" />
        </mxCell>
        <mxCell id="yyZj5BJA8v-fTfeoFuPs-3" value="" style="endArrow=none;dashed=1;html=1;dashPattern=1 3;strokeWidth=2;rounded=0;" parent="1" edge="1">
          <mxGeometry width="50" height="50" relative="1" as="geometry">
            <mxPoint x="927" y="1240" as="sourcePoint" />
            <mxPoint x="927" y="1130" as="targetPoint" />
          </mxGeometry>
        </mxCell>
        <UserObject label="" link="data:page/id,prtHgNgQTEPvFCAcTncT" id="y2K0btyQi23rZqNO252V-2">
          <mxCell style="html=1;strokeWidth=1;shadow=0;dashed=0;shape=mxgraph.ios7.misc.link;fillColor=#4CDA64;strokeColor=none;buttonText=;strokeColor2=#222222;fontColor=#222222;fontSize=8;verticalLabelPosition=bottom;verticalAlign=top;align=center;sketch=0;" parent="1" vertex="1">
            <mxGeometry x="217" y="107" width="20" height="20" as="geometry" />
          </mxCell>
        </UserObject>
        <UserObject label="" link="data:page/id,7i-LERVDmYqNg7XQ0lNa" id="y2K0btyQi23rZqNO252V-3">
          <mxCell style="html=1;strokeWidth=1;shadow=0;dashed=0;shape=mxgraph.ios7.misc.link;fillColor=#4CDA64;strokeColor=none;buttonText=;strokeColor2=#222222;fontColor=#222222;fontSize=8;verticalLabelPosition=bottom;verticalAlign=top;align=center;sketch=0;" parent="1" vertex="1">
            <mxGeometry x="217" y="128" width="20" height="20" as="geometry" />
          </mxCell>
        </UserObject>
        <UserObject label="" link="data:page/id,HAeoyOpSyOvsjUOocYrg" id="y2K0btyQi23rZqNO252V-4">
          <mxCell style="html=1;strokeWidth=1;shadow=0;dashed=0;shape=mxgraph.ios7.misc.link;fillColor=#4CDA64;strokeColor=none;buttonText=;strokeColor2=#222222;fontColor=#222222;fontSize=8;verticalLabelPosition=bottom;verticalAlign=top;align=center;sketch=0;" parent="1" vertex="1">
            <mxGeometry x="217" y="150" width="20" height="20" as="geometry" />
          </mxCell>
        </UserObject>
        <UserObject label="" link="data:page/id,YElmQMGVYzcu0724_LoY" id="y2K0btyQi23rZqNO252V-5">
          <mxCell style="html=1;strokeWidth=1;shadow=0;dashed=0;shape=mxgraph.ios7.misc.link;fillColor=#4CDA64;strokeColor=none;buttonText=;strokeColor2=#222222;fontColor=#222222;fontSize=8;verticalLabelPosition=bottom;verticalAlign=top;align=center;sketch=0;" parent="1" vertex="1">
            <mxGeometry x="217" y="172" width="20" height="20" as="geometry" />
          </mxCell>
        </UserObject>
      </root>
    </mxGraphModel>
  </diagram>
  <diagram id="7i-LERVDmYqNg7XQ0lNa" name="PrEP">
    <mxGraphModel dx="983" dy="541" grid="1" gridSize="10" guides="1" tooltips="1" connect="1" arrows="1" fold="1" page="1" pageScale="1" pageWidth="850" pageHeight="1100" math="0" shadow="0">
      <root>
        <mxCell id="0" />
        <mxCell id="1" parent="0" />
        <mxCell id="iYbuata2bx76US4o_usM-1" value="PrEP" style="swimlane;html=1;childLayout=stackLayout;resizeParent=1;resizeParentMax=0;horizontal=0;startSize=20;horizontalStack=0;fontFamily=Tahoma;strokeColor=#666666;" parent="1" vertex="1">
          <mxGeometry x="40" y="200" width="1420" height="740" as="geometry" />
        </mxCell>
        <mxCell id="iYbuata2bx76US4o_usM-2" value="แหล่งที่มาของยาฯ" style="swimlane;html=1;startSize=20;horizontal=0;fontFamily=Tahoma;strokeColor=#666666;" parent="iYbuata2bx76US4o_usM-1" vertex="1">
          <mxGeometry x="20" width="1400" height="130" as="geometry" />
        </mxCell>
        <mxCell id="iYbuata2bx76US4o_usM-3" value="&lt;span style=&quot;background-color: initial;&quot;&gt;&lt;b&gt;การจัดหา และสนับสนุนยา PrEP&lt;/b&gt;&lt;/span&gt;&lt;br&gt;&lt;p style=&quot;margin: 0px;&quot;&gt;&lt;span style=&quot;background-color: initial;&quot;&gt;ㆍกรมควบคุมโรค จะได้รับสนับสนุนยา PrEP จากกองทุนโลก ช่วงเดือนกรกฎาคม 2566&lt;/span&gt;&lt;/p&gt;&lt;p style=&quot;margin: 0px;&quot;&gt;ㆍกรมควบคุมโรค อนุมัติโครงการจัดซื้อยา PrEP เพื่อใช้ในกลุ่มนอกสิทธิบัตร์ทอง (Non - UC) ในการปิด&lt;span style=&quot;background-color: initial;&quot;&gt;ช่องว่างระหว่างรอข้อสรุปจากพระราชกฤษฎีกา จาก สปสช&lt;/span&gt;&lt;/p&gt;" style="text;html=1;align=left;verticalAlign=middle;resizable=0;points=[];autosize=1;strokeColor=none;fillColor=none;" parent="iYbuata2bx76US4o_usM-2" vertex="1">
          <mxGeometry x="40" y="20" width="800" height="60" as="geometry" />
        </mxCell>
        <mxCell id="02Zes3cpNZERqjSIzwcM-1" value="? ทำ Stock เองมั้ย" style="text;html=1;align=center;verticalAlign=middle;resizable=0;points=[];autosize=1;strokeColor=#b85450;fillColor=#f8cecc;" vertex="1" parent="iYbuata2bx76US4o_usM-2">
          <mxGeometry x="40" y="80" width="120" height="30" as="geometry" />
        </mxCell>
        <mxCell id="iYbuata2bx76US4o_usM-4" value="ก. ป้องกัน" style="swimlane;html=1;startSize=20;horizontal=0;fontFamily=Tahoma;strokeColor=#666666;" parent="iYbuata2bx76US4o_usM-1" vertex="1">
          <mxGeometry x="20" y="130" width="1400" height="120" as="geometry" />
        </mxCell>
        <mxCell id="iYbuata2bx76US4o_usM-5" style="edgeStyle=orthogonalEdgeStyle;rounded=0;orthogonalLoop=1;jettySize=auto;html=1;exitX=1;exitY=0.5;exitDx=0;exitDy=0;exitPerimeter=0;" parent="iYbuata2bx76US4o_usM-4" source="iYbuata2bx76US4o_usM-6" target="iYbuata2bx76US4o_usM-10" edge="1">
          <mxGeometry relative="1" as="geometry" />
        </mxCell>
        <mxCell id="iYbuata2bx76US4o_usM-6" value="prepthai.net" style="shape=cylinder3;whiteSpace=wrap;html=1;boundedLbl=1;backgroundOutline=1;size=10;" parent="iYbuata2bx76US4o_usM-4" vertex="1">
          <mxGeometry x="280" y="25" width="136" height="70" as="geometry" />
        </mxCell>
        <mxCell id="iYbuata2bx76US4o_usM-7" value="Start" style="rounded=1;whiteSpace=wrap;html=1;arcSize=50;" parent="iYbuata2bx76US4o_usM-4" vertex="1">
          <mxGeometry x="40" y="45" width="60" height="30" as="geometry" />
        </mxCell>
        <mxCell id="iYbuata2bx76US4o_usM-9" style="edgeStyle=orthogonalEdgeStyle;rounded=0;orthogonalLoop=1;jettySize=auto;html=1;entryX=0;entryY=0.5;entryDx=0;entryDy=0;" parent="iYbuata2bx76US4o_usM-4" source="iYbuata2bx76US4o_usM-10" target="yx-2tTXC8vAOsqTGPjxq-2" edge="1">
          <mxGeometry relative="1" as="geometry">
            <mxPoint x="1220" y="60" as="targetPoint" />
          </mxGeometry>
        </mxCell>
        <mxCell id="iYbuata2bx76US4o_usM-10" value="เรียกดูรายงาน&lt;br&gt;ผลการดำเนินงาน" style="shape=step;perimeter=stepPerimeter;whiteSpace=wrap;html=1;fixedSize=1;" parent="iYbuata2bx76US4o_usM-4" vertex="1">
          <mxGeometry x="900" y="27.5" width="190" height="65" as="geometry" />
        </mxCell>
        <mxCell id="wmDhYZF2U2b0ISxtUK3Z-4" value="" style="edgeStyle=orthogonalEdgeStyle;rounded=0;orthogonalLoop=1;jettySize=auto;html=1;exitX=1;exitY=0.5;exitDx=0;exitDy=0;entryX=0;entryY=0.5;entryDx=0;entryDy=0;entryPerimeter=0;" parent="iYbuata2bx76US4o_usM-4" source="wmDhYZF2U2b0ISxtUK3Z-3" target="iYbuata2bx76US4o_usM-6" edge="1">
          <mxGeometry relative="1" as="geometry" />
        </mxCell>
        <mxCell id="wmDhYZF2U2b0ISxtUK3Z-3" value="พัฒนาระบบ&lt;br style=&quot;border-color: var(--border-color); font-family: Helvetica;&quot;&gt;&lt;span style=&quot;font-family: Helvetica;&quot;&gt;prepthai.net&lt;/span&gt;" style="rounded=0;whiteSpace=wrap;html=1;fontFamily=Tahoma;fontSize=12;fontColor=#000000;align=center;" parent="iYbuata2bx76US4o_usM-4" vertex="1">
          <mxGeometry x="140" y="35" width="90" height="50" as="geometry" />
        </mxCell>
        <mxCell id="wmDhYZF2U2b0ISxtUK3Z-2" value="" style="edgeStyle=orthogonalEdgeStyle;rounded=0;orthogonalLoop=1;jettySize=auto;html=1;fontFamily=Tahoma;exitX=1;exitY=0.5;exitDx=0;exitDy=0;entryX=0;entryY=0.5;entryDx=0;entryDy=0;" parent="iYbuata2bx76US4o_usM-4" source="iYbuata2bx76US4o_usM-7" target="wmDhYZF2U2b0ISxtUK3Z-3" edge="1">
          <mxGeometry relative="1" as="geometry">
            <mxPoint x="199" y="430" as="sourcePoint" />
            <mxPoint x="340" y="430" as="targetPoint" />
          </mxGeometry>
        </mxCell>
        <mxCell id="yx-2tTXC8vAOsqTGPjxq-2" value="วางแผน สนับสนุน ติดตาม พัฒนาศักยภาพหน่วยบริการสุขภาพในการจัดบริการเพร็พ (PrEP)" style="rounded=1;whiteSpace=wrap;html=1;arcSize=50;" parent="iYbuata2bx76US4o_usM-4" vertex="1">
          <mxGeometry x="1140" y="30" width="240" height="60" as="geometry" />
        </mxCell>
        <mxCell id="iYbuata2bx76US4o_usM-12" value="NAP สปสช." style="swimlane;html=1;startSize=20;horizontal=0;fontFamily=Tahoma;strokeColor=#666666;" parent="iYbuata2bx76US4o_usM-1" vertex="1">
          <mxGeometry x="20" y="250" width="1400" height="120" as="geometry" />
        </mxCell>
        <mxCell id="iYbuata2bx76US4o_usM-13" value="NAP+" style="shape=cylinder3;whiteSpace=wrap;html=1;boundedLbl=1;backgroundOutline=1;size=10;" parent="iYbuata2bx76US4o_usM-12" vertex="1">
          <mxGeometry x="600" y="30" width="136" height="70" as="geometry" />
        </mxCell>
        <mxCell id="STorro5WmvUbhvgQw9nW-1" value="ชุดสิทธิประโยชน์&lt;br&gt;การชดเชยยา PrEP" style="rounded=0;whiteSpace=wrap;html=1;" vertex="1" parent="iYbuata2bx76US4o_usM-12">
          <mxGeometry x="110" y="35" width="160" height="60" as="geometry" />
        </mxCell>
        <mxCell id="STorro5WmvUbhvgQw9nW-2" style="edgeStyle=orthogonalEdgeStyle;rounded=0;orthogonalLoop=1;jettySize=auto;html=1;entryX=0;entryY=0.5;entryDx=0;entryDy=0;entryPerimeter=0;" edge="1" parent="iYbuata2bx76US4o_usM-12" source="STorro5WmvUbhvgQw9nW-1" target="iYbuata2bx76US4o_usM-13">
          <mxGeometry relative="1" as="geometry" />
        </mxCell>
        <mxCell id="iYbuata2bx76US4o_usM-15" value="สคร./สสจ." style="swimlane;html=1;startSize=20;horizontal=0;fontFamily=Tahoma;strokeColor=#666666;" parent="iYbuata2bx76US4o_usM-1" vertex="1">
          <mxGeometry x="20" y="370" width="1400" height="120" as="geometry" />
        </mxCell>
        <mxCell id="iYbuata2bx76US4o_usM-16" style="edgeStyle=orthogonalEdgeStyle;rounded=0;orthogonalLoop=1;jettySize=auto;html=1;" parent="iYbuata2bx76US4o_usM-15" source="iYbuata2bx76US4o_usM-17" target="yx-2tTXC8vAOsqTGPjxq-3" edge="1">
          <mxGeometry relative="1" as="geometry">
            <mxPoint x="1080" y="60" as="targetPoint" />
          </mxGeometry>
        </mxCell>
        <mxCell id="iYbuata2bx76US4o_usM-17" value="? ติดตามสถานการณ์&lt;br&gt;การจ่ายยาฯ รายพื้นที่&lt;br&gt;เขตฯ จังหวัด หน่วยบริการ" style="shape=step;perimeter=stepPerimeter;whiteSpace=wrap;html=1;fixedSize=1;" parent="iYbuata2bx76US4o_usM-15" vertex="1">
          <mxGeometry x="760" y="27.5" width="190" height="65" as="geometry" />
        </mxCell>
        <mxCell id="yx-2tTXC8vAOsqTGPjxq-3" value="ออกมาตรการและถ่ายทอด&lt;br style=&quot;border-color: var(--border-color); font-family: Tahoma;&quot;&gt;&lt;span style=&quot;font-family: Tahoma;&quot;&gt;ไปยังหน่วยบริการ&lt;/span&gt;" style="rounded=1;whiteSpace=wrap;html=1;arcSize=50;" parent="iYbuata2bx76US4o_usM-15" vertex="1">
          <mxGeometry x="1009" y="30" width="160" height="60" as="geometry" />
        </mxCell>
        <mxCell id="iYbuata2bx76US4o_usM-19" value="หน่วยบริการ" style="swimlane;html=1;startSize=20;horizontal=0;fontFamily=Tahoma;strokeColor=#666666;" parent="iYbuata2bx76US4o_usM-1" vertex="1">
          <mxGeometry x="20" y="490" width="1400" height="120" as="geometry" />
        </mxCell>
        <mxCell id="iYbuata2bx76US4o_usM-20" value="คีย์ข้อมูลเข้าระบบ&lt;br style=&quot;border-color: var(--border-color); font-family: Tahoma;&quot;&gt;&lt;span style=&quot;font-family: Tahoma;&quot;&gt;การจ่ายยาฯ&amp;nbsp;&lt;/span&gt;ความถี่: รายเดือน&lt;br&gt;*แล้วแต่รพ." style="shape=step;perimeter=stepPerimeter;whiteSpace=wrap;html=1;fixedSize=1;" parent="iYbuata2bx76US4o_usM-19" vertex="1">
          <mxGeometry x="60" y="27.5" width="191" height="65" as="geometry" />
        </mxCell>
        <mxCell id="iYbuata2bx76US4o_usM-21" value="คีย์ข้อมูลการจ่ายยาฯ เพื่อการ reimbursement จาก สปสช.&lt;br&gt;เป็นรายเคส" style="shape=step;perimeter=stepPerimeter;whiteSpace=wrap;html=1;fixedSize=1;" parent="iYbuata2bx76US4o_usM-19" vertex="1">
          <mxGeometry x="370" y="27.5" width="201" height="65" as="geometry" />
        </mxCell>
        <mxCell id="iYbuata2bx76US4o_usM-22" value="ติดตามสถานการณ์&lt;br&gt;การจ่ายยาฯ ของ รพ." style="shape=step;perimeter=stepPerimeter;whiteSpace=wrap;html=1;fixedSize=1;" parent="iYbuata2bx76US4o_usM-19" vertex="1">
          <mxGeometry x="586" y="27.5" width="164" height="65" as="geometry" />
        </mxCell>
        <mxCell id="iYbuata2bx76US4o_usM-23" value="NGO ภายนอก" style="swimlane;html=1;startSize=20;horizontal=0;fontFamily=Tahoma;strokeColor=#666666;" parent="iYbuata2bx76US4o_usM-1" vertex="1">
          <mxGeometry x="20" y="610" width="1400" height="130" as="geometry" />
        </mxCell>
        <mxCell id="iYbuata2bx76US4o_usM-24" value="ให้ความร่วมมือในการรายงาน&lt;br&gt;ยออดการจ่ายยาฯ เข้าระบบ" style="rounded=0;whiteSpace=wrap;html=1;fontFamily=Tahoma;fontSize=12;fontColor=#000000;align=center;" parent="iYbuata2bx76US4o_usM-23" vertex="1">
          <mxGeometry x="400" y="35" width="189" height="60" as="geometry" />
        </mxCell>
        <mxCell id="iYbuata2bx76US4o_usM-25" value="? มีการคีย์ในระบบ" style="text;html=1;align=center;verticalAlign=middle;resizable=0;points=[];autosize=1;strokeColor=#b85450;fillColor=#f8cecc;" parent="iYbuata2bx76US4o_usM-23" vertex="1">
          <mxGeometry x="439.5" y="10.5" width="110" height="30" as="geometry" />
        </mxCell>
        <mxCell id="iYbuata2bx76US4o_usM-26" style="edgeStyle=orthogonalEdgeStyle;rounded=0;orthogonalLoop=1;jettySize=auto;html=1;exitX=0;exitY=0.5;exitDx=0;exitDy=0;exitPerimeter=0;" parent="iYbuata2bx76US4o_usM-23" source="iYbuata2bx76US4o_usM-29" target="iYbuata2bx76US4o_usM-24" edge="1">
          <mxGeometry relative="1" as="geometry" />
        </mxCell>
        <mxCell id="iYbuata2bx76US4o_usM-27" value="" style="group" parent="iYbuata2bx76US4o_usM-23" vertex="1" connectable="0">
          <mxGeometry x="650" y="7.5" width="136" height="115" as="geometry" />
        </mxCell>
        <mxCell id="iYbuata2bx76US4o_usM-28" value="etc." style="shape=cylinder3;whiteSpace=wrap;html=1;boundedLbl=1;backgroundOutline=1;size=10;" parent="iYbuata2bx76US4o_usM-27" vertex="1">
          <mxGeometry y="60" width="136" height="55" as="geometry" />
        </mxCell>
        <mxCell id="iYbuata2bx76US4o_usM-29" value="PIMAN" style="shape=cylinder3;whiteSpace=wrap;html=1;boundedLbl=1;backgroundOutline=1;size=10;" parent="iYbuata2bx76US4o_usM-27" vertex="1">
          <mxGeometry y="30" width="136" height="55" as="geometry" />
        </mxCell>
        <mxCell id="iYbuata2bx76US4o_usM-30" value="TRC, IHRI" style="shape=cylinder3;whiteSpace=wrap;html=1;boundedLbl=1;backgroundOutline=1;size=10;" parent="iYbuata2bx76US4o_usM-27" vertex="1">
          <mxGeometry width="136" height="50" as="geometry" />
        </mxCell>
        <mxCell id="iYbuata2bx76US4o_usM-31" value="ติดตามสถานการณ์&lt;br&gt;การจ่ายยาฯ รายพื้นที่&lt;br&gt;เขตฯ จังหวัด หน่วยบริการ" style="shape=step;perimeter=stepPerimeter;whiteSpace=wrap;html=1;fixedSize=1;" parent="iYbuata2bx76US4o_usM-23" vertex="1">
          <mxGeometry x="60" y="30" width="190" height="65" as="geometry" />
        </mxCell>
        <mxCell id="iYbuata2bx76US4o_usM-32" value="" style="endArrow=classic;html=1;rounded=0;exitX=1;exitY=0.5;exitDx=0;exitDy=0;entryX=0.5;entryY=1;entryDx=0;entryDy=0;entryPerimeter=0;edgeStyle=orthogonalEdgeStyle;jumpStyle=arc;" parent="iYbuata2bx76US4o_usM-1" source="iYbuata2bx76US4o_usM-20" target="iYbuata2bx76US4o_usM-6" edge="1">
          <mxGeometry width="50" height="50" relative="1" as="geometry">
            <mxPoint x="241" y="430" as="sourcePoint" />
            <mxPoint x="500.5" y="420" as="targetPoint" />
          </mxGeometry>
        </mxCell>
        <mxCell id="iYbuata2bx76US4o_usM-33" style="edgeStyle=orthogonalEdgeStyle;rounded=0;orthogonalLoop=1;jettySize=auto;html=1;entryX=0.5;entryY=1;entryDx=0;entryDy=0;entryPerimeter=0;exitX=0;exitY=0.5;exitDx=0;exitDy=0;jumpStyle=arc;" parent="iYbuata2bx76US4o_usM-1" source="iYbuata2bx76US4o_usM-24" target="iYbuata2bx76US4o_usM-6" edge="1">
          <mxGeometry relative="1" as="geometry" />
        </mxCell>
        <mxCell id="iYbuata2bx76US4o_usM-34" value="" style="edgeStyle=orthogonalEdgeStyle;rounded=0;orthogonalLoop=1;jettySize=auto;html=1;exitX=1;exitY=0;exitDx=0;exitDy=47.5;exitPerimeter=0;" parent="iYbuata2bx76US4o_usM-1" source="iYbuata2bx76US4o_usM-6" target="iYbuata2bx76US4o_usM-17" edge="1">
          <mxGeometry relative="1" as="geometry" />
        </mxCell>
        <mxCell id="yx-2tTXC8vAOsqTGPjxq-5" value="&amp;nbsp;ผ่านหน้าเว็บ&amp;nbsp;" style="edgeLabel;html=1;align=center;verticalAlign=middle;resizable=0;points=[];" parent="iYbuata2bx76US4o_usM-34" vertex="1" connectable="0">
          <mxGeometry x="0.1261" relative="1" as="geometry">
            <mxPoint x="13" y="2" as="offset" />
          </mxGeometry>
        </mxCell>
        <mxCell id="iYbuata2bx76US4o_usM-35" style="edgeStyle=elbowEdgeStyle;rounded=0;orthogonalLoop=1;jettySize=auto;html=1;entryX=-0.01;entryY=0.764;entryDx=0;entryDy=0;entryPerimeter=0;exitX=0.5;exitY=0;exitDx=0;exitDy=0;" parent="iYbuata2bx76US4o_usM-1" source="iYbuata2bx76US4o_usM-21" target="iYbuata2bx76US4o_usM-13" edge="1">
          <mxGeometry relative="1" as="geometry">
            <Array as="points">
              <mxPoint x="490" y="450" />
            </Array>
          </mxGeometry>
        </mxCell>
        <mxCell id="iYbuata2bx76US4o_usM-36" style="edgeStyle=orthogonalEdgeStyle;rounded=0;orthogonalLoop=1;jettySize=auto;html=1;entryX=0.5;entryY=0;entryDx=0;entryDy=0;exitX=1;exitY=0.5;exitDx=0;exitDy=0;exitPerimeter=0;" parent="iYbuata2bx76US4o_usM-1" source="iYbuata2bx76US4o_usM-13" target="iYbuata2bx76US4o_usM-17" edge="1">
          <mxGeometry relative="1" as="geometry" />
        </mxCell>
        <mxCell id="yx-2tTXC8vAOsqTGPjxq-6" value="&amp;nbsp;NAP Report&amp;nbsp;" style="edgeLabel;html=1;align=center;verticalAlign=middle;resizable=0;points=[];" parent="iYbuata2bx76US4o_usM-36" vertex="1" connectable="0">
          <mxGeometry x="-0.25" y="1" relative="1" as="geometry">
            <mxPoint x="-22" y="1" as="offset" />
          </mxGeometry>
        </mxCell>
        <mxCell id="iYbuata2bx76US4o_usM-37" style="edgeStyle=orthogonalEdgeStyle;rounded=0;orthogonalLoop=1;jettySize=auto;html=1;entryX=0.855;entryY=1;entryDx=0;entryDy=-2.9;entryPerimeter=0;exitX=0.5;exitY=0;exitDx=0;exitDy=0;exitPerimeter=0;" parent="iYbuata2bx76US4o_usM-1" source="iYbuata2bx76US4o_usM-13" target="iYbuata2bx76US4o_usM-6" edge="1">
          <mxGeometry relative="1" as="geometry">
            <Array as="points">
              <mxPoint x="416" y="260" />
            </Array>
          </mxGeometry>
        </mxCell>
        <mxCell id="yx-2tTXC8vAOsqTGPjxq-1" value="&amp;nbsp;? ขอข้อมูลเพื่อนำเข้ารายงานผล&amp;nbsp;" style="edgeLabel;html=1;align=center;verticalAlign=middle;resizable=0;points=[];labelBackgroundColor=#FFCCCC;" parent="iYbuata2bx76US4o_usM-37" vertex="1" connectable="0">
          <mxGeometry x="0.0024" y="1" relative="1" as="geometry">
            <mxPoint as="offset" />
          </mxGeometry>
        </mxCell>
        <mxCell id="iYbuata2bx76US4o_usM-38" style="edgeStyle=orthogonalEdgeStyle;rounded=0;orthogonalLoop=1;jettySize=auto;html=1;entryX=0.5;entryY=0;entryDx=0;entryDy=0;" parent="iYbuata2bx76US4o_usM-1" source="iYbuata2bx76US4o_usM-13" target="iYbuata2bx76US4o_usM-22" edge="1">
          <mxGeometry relative="1" as="geometry" />
        </mxCell>
        <mxCell id="iYbuata2bx76US4o_usM-39" style="edgeStyle=elbowEdgeStyle;rounded=0;orthogonalLoop=1;jettySize=auto;html=1;exitX=0.145;exitY=1;exitDx=0;exitDy=-2.9;exitPerimeter=0;shadow=0;noJump=0;comic=0;enumerate=0;orthogonal=0;flowAnimation=0;ignoreEdge=0;snapToPoint=0;fixDash=0;backgroundOutline=0;metaEdit=0;jumpStyle=arc;entryX=1;entryY=0.5;entryDx=0;entryDy=0;" parent="iYbuata2bx76US4o_usM-1" source="iYbuata2bx76US4o_usM-6" target="iYbuata2bx76US4o_usM-31" edge="1">
          <mxGeometry relative="1" as="geometry">
            <Array as="points">
              <mxPoint x="320" y="440" />
            </Array>
            <mxPoint x="320" y="700" as="targetPoint" />
          </mxGeometry>
        </mxCell>
        <mxCell id="U4ZfHAWTkCk_XPCFxU9I-1" value="มาตรการ:&amp;nbsp;&lt;span style=&quot;font-weight: normal;&quot;&gt;ลดจำนวนผู้ติดเชื้อเอชไอวีรายใหม่ให้เหลือปีละไม่เกิน 1,000 คน ในยุทธศาสตร์แห่งชาติว่าด้วยการยุติปัญหาเอดส์ พ.ศ. 2560-2573&lt;/span&gt;" style="text;html=1;strokeColor=none;fillColor=none;align=left;verticalAlign=top;whiteSpace=wrap;rounded=0;fontFamily=Tahoma;fontStyle=1;fontSize=18;" parent="1" vertex="1">
          <mxGeometry x="40" y="70" width="1280" height="30" as="geometry" />
        </mxCell>
        <mxCell id="U4ZfHAWTkCk_XPCFxU9I-2" value="กลุ่มงาน:&amp;nbsp;&lt;span style=&quot;font-weight: normal;&quot;&gt;กลุ่มพัฒนาและส่งเสริมเทคโนโลยีการป้องกัน&lt;/span&gt;" style="text;html=1;strokeColor=none;fillColor=none;align=left;verticalAlign=top;whiteSpace=wrap;rounded=0;fontFamily=Tahoma;fontStyle=1;fontSize=18;" parent="1" vertex="1">
          <mxGeometry x="40" y="40" width="1280" height="30" as="geometry" />
        </mxCell>
        <mxCell id="U4ZfHAWTkCk_XPCFxU9I-3" value="กิจกรรมที่ดำเนินการ:&amp;nbsp;" style="text;html=1;strokeColor=none;fillColor=none;align=left;verticalAlign=top;whiteSpace=wrap;rounded=0;fontFamily=Tahoma;fontStyle=1;fontSize=18;" parent="1" vertex="1">
          <mxGeometry x="40" y="100" width="200" height="30" as="geometry" />
        </mxCell>
        <mxCell id="U4ZfHAWTkCk_XPCFxU9I-4" value="1. Condoms&amp;nbsp;สนับสนุนถุงยางอนามัยและสารหล่อลื่น&lt;br&gt;2.&amp;nbsp;PrEP การจ่ายยา PrEP ในกลุ่มประชากร&lt;br&gt;3.&amp;nbsp;Index partner testing&amp;nbsp;การให้บริการชวนคู่ของผู้ติดเชื้อเอชไอวีมาตรวจหาการติดเชื้อเอชไอวี&lt;br&gt;4.&amp;nbsp;Youth กลุ่มเยาวชน&amp;nbsp;" style="text;html=1;strokeColor=none;fillColor=none;align=left;verticalAlign=top;whiteSpace=wrap;rounded=0;fontFamily=Tahoma;fontStyle=0;fontSize=18;" parent="1" vertex="1">
          <mxGeometry x="240" y="100" width="920" height="90" as="geometry" />
        </mxCell>
        <mxCell id="za_iSmngE_dVIyIqw8Tq-1" value="กระทำในระบบ" style="shape=step;perimeter=stepPerimeter;whiteSpace=wrap;html=1;fixedSize=1;" parent="1" vertex="1">
          <mxGeometry x="40" y="1015" width="120" height="40" as="geometry" />
        </mxCell>
        <mxCell id="za_iSmngE_dVIyIqw8Tq-2" value="กิจกรรม/การดำเนินการ" style="rounded=0;whiteSpace=wrap;html=1;" parent="1" vertex="1">
          <mxGeometry x="180" y="1015" width="130" height="40" as="geometry" />
        </mxCell>
        <mxCell id="za_iSmngE_dVIyIqw8Tq-3" value="ฐานข้อมูล" style="shape=cylinder3;whiteSpace=wrap;html=1;boundedLbl=1;backgroundOutline=1;size=10;" parent="1" vertex="1">
          <mxGeometry x="340" y="1010" width="100" height="50" as="geometry" />
        </mxCell>
        <mxCell id="za_iSmngE_dVIyIqw8Tq-4" value="&lt;b&gt;แหล่งที่มาของข้อมูล&lt;/b&gt;&lt;br&gt;1. หน่วยบริการบันทึกการจ่ายยา PrEP ให้กับผู้รับบริการ&amp;nbsp;&lt;br&gt;2. NGO ส่งข้อมูลการจ่ายยา&amp;nbsp;PrEP (จำนวนรวม?)&amp;nbsp;" style="text;html=1;strokeColor=none;fillColor=none;align=left;verticalAlign=top;whiteSpace=wrap;rounded=0;fontFamily=Tahoma;fontStyle=0;fontSize=18;" parent="1" vertex="1">
          <mxGeometry x="480" y="960" width="440" height="90" as="geometry" />
        </mxCell>
        <mxCell id="za_iSmngE_dVIyIqw8Tq-5" value="&lt;b&gt;แหล่งที่ไปของข้อมูล&lt;br&gt;&lt;/b&gt;1. กลุ่มป้องกันฯ ดึงข้อมูลจากในระบบเพื่อวางแผน สนับสนุน ติดตาม พัฒนาศักยภาพหน่วยบริการสุขภาพในการจัดบริการเพร็พ (PrEP)&lt;br&gt;2. ส่วนพื้นที่ ดึงข้อมูลสรุปผลเพื่อรายงานโครงการ&lt;br&gt;ออกมาตรการและถ่ายทอดไปยังหน่วยบริการผ่านหน้าเว็บ" style="text;html=1;strokeColor=none;fillColor=none;align=left;verticalAlign=top;whiteSpace=wrap;rounded=0;fontFamily=Tahoma;fontStyle=0;fontSize=18;" parent="1" vertex="1">
          <mxGeometry x="940" y="960" width="510" height="130" as="geometry" />
        </mxCell>
        <mxCell id="za_iSmngE_dVIyIqw8Tq-6" value="" style="endArrow=none;dashed=1;html=1;dashPattern=1 3;strokeWidth=2;rounded=0;" parent="1" edge="1">
          <mxGeometry width="50" height="50" relative="1" as="geometry">
            <mxPoint x="927" y="1070" as="sourcePoint" />
            <mxPoint x="927" y="960" as="targetPoint" />
          </mxGeometry>
        </mxCell>
        <UserObject label="" link="data:page/id,prtHgNgQTEPvFCAcTncT" id="yqLF68-4ru3v1wKSKLxN-1">
          <mxCell style="html=1;strokeWidth=1;shadow=0;dashed=0;shape=mxgraph.ios7.misc.link;fillColor=#4CDA64;strokeColor=none;buttonText=;strokeColor2=#222222;fontColor=#222222;fontSize=8;verticalLabelPosition=bottom;verticalAlign=top;align=center;sketch=0;" parent="1" vertex="1">
            <mxGeometry x="217" y="107" width="20" height="20" as="geometry" />
          </mxCell>
        </UserObject>
        <UserObject label="" link="data:page/id,7i-LERVDmYqNg7XQ0lNa" id="yqLF68-4ru3v1wKSKLxN-2">
          <mxCell style="html=1;strokeWidth=1;shadow=0;dashed=0;shape=mxgraph.ios7.misc.link;fillColor=#4CDA64;strokeColor=none;buttonText=;strokeColor2=#222222;fontColor=#222222;fontSize=8;verticalLabelPosition=bottom;verticalAlign=top;align=center;sketch=0;" parent="1" vertex="1">
            <mxGeometry x="217" y="128" width="20" height="20" as="geometry" />
          </mxCell>
        </UserObject>
        <UserObject label="" link="data:page/id,HAeoyOpSyOvsjUOocYrg" id="yqLF68-4ru3v1wKSKLxN-3">
          <mxCell style="html=1;strokeWidth=1;shadow=0;dashed=0;shape=mxgraph.ios7.misc.link;fillColor=#4CDA64;strokeColor=none;buttonText=;strokeColor2=#222222;fontColor=#222222;fontSize=8;verticalLabelPosition=bottom;verticalAlign=top;align=center;sketch=0;" parent="1" vertex="1">
            <mxGeometry x="217" y="150" width="20" height="20" as="geometry" />
          </mxCell>
        </UserObject>
        <UserObject label="" link="data:page/id,YElmQMGVYzcu0724_LoY" id="yqLF68-4ru3v1wKSKLxN-4">
          <mxCell style="html=1;strokeWidth=1;shadow=0;dashed=0;shape=mxgraph.ios7.misc.link;fillColor=#4CDA64;strokeColor=none;buttonText=;strokeColor2=#222222;fontColor=#222222;fontSize=8;verticalLabelPosition=bottom;verticalAlign=top;align=center;sketch=0;" parent="1" vertex="1">
            <mxGeometry x="217" y="172" width="20" height="20" as="geometry" />
          </mxCell>
        </UserObject>
        <mxCell id="STorro5WmvUbhvgQw9nW-6" value="&lt;b&gt;???&lt;/b&gt;&lt;br&gt;1. กลุ่มข้อมูลฯ ได้มี Action ในการเชื่อมต่อข้อมูลจาก NAP มาที่ prepthai หรือไม่?&lt;br&gt;2. กลุ่มข้อมูลฯ ได้มี Action ในการเชื่อมต่อข้อมูลจาก NGO มาที่ prepthai หรือไม่?&amp;nbsp;&amp;nbsp;" style="text;html=1;strokeColor=#b85450;fillColor=#f8cecc;align=left;verticalAlign=top;whiteSpace=wrap;rounded=0;fontFamily=Tahoma;fontStyle=0;fontSize=18;" vertex="1" parent="1">
          <mxGeometry x="480" y="1100" width="440" height="120" as="geometry" />
        </mxCell>
      </root>
    </mxGraphModel>
  </diagram>
  <diagram name="IndexPartner" id="HAeoyOpSyOvsjUOocYrg">
    <mxGraphModel dx="1426" dy="785" grid="1" gridSize="10" guides="1" tooltips="1" connect="1" arrows="1" fold="1" page="1" pageScale="1" pageWidth="850" pageHeight="1100" math="0" shadow="0">
      <root>
        <mxCell id="hd3hHbkQDl4NFfRmFZ6i-0" />
        <mxCell id="hd3hHbkQDl4NFfRmFZ6i-1" parent="hd3hHbkQDl4NFfRmFZ6i-0" />
        <mxCell id="hd3hHbkQDl4NFfRmFZ6i-2" value="PrEP" style="swimlane;html=1;childLayout=stackLayout;resizeParent=1;resizeParentMax=0;horizontal=0;startSize=20;horizontalStack=0;fontFamily=Tahoma;strokeColor=#666666;" parent="hd3hHbkQDl4NFfRmFZ6i-1" vertex="1">
          <mxGeometry x="30" y="200" width="1460" height="500" as="geometry" />
        </mxCell>
        <mxCell id="hd3hHbkQDl4NFfRmFZ6i-3" value="หน่วยบริการ" style="swimlane;html=1;startSize=20;horizontal=0;fontFamily=Tahoma;strokeColor=#666666;" parent="hd3hHbkQDl4NFfRmFZ6i-2" vertex="1">
          <mxGeometry x="20" width="1440" height="130" as="geometry" />
        </mxCell>
        <mxCell id="hd3hHbkQDl4NFfRmFZ6i-24" value="ติดตามการให้คำปรึกษา VCT&lt;br&gt;และตรวจหาการติดเชื้อเอชไอวี&lt;br&gt;&amp;nbsp;ของ รพ." style="shape=step;perimeter=stepPerimeter;whiteSpace=wrap;html=1;fixedSize=1;" parent="hd3hHbkQDl4NFfRmFZ6i-3" vertex="1">
          <mxGeometry x="576" y="35" width="214" height="65" as="geometry" />
        </mxCell>
        <mxCell id="hd3hHbkQDl4NFfRmFZ6i-23" value="บันทึกในแบบบันทึกบริการปรึกษาและ&lt;br&gt;ตรวจหาการติดเชื้อเอชไอวี (VCT form)" style="shape=step;perimeter=stepPerimeter;whiteSpace=wrap;html=1;fixedSize=1;" parent="hd3hHbkQDl4NFfRmFZ6i-3" vertex="1">
          <mxGeometry x="322" y="35" width="230" height="65" as="geometry" />
        </mxCell>
        <mxCell id="9v4CaL5_7gW5cO8myuor-19" value="&lt;div style=&quot;font-size: 12px;&quot;&gt;&lt;font style=&quot;font-size: 12px; font-weight: normal;&quot; face=&quot;Helvetica&quot;&gt;โดยในระหว่างการพัฒนา NAP ที่ระบบ Index partner testing สำหรับหน่วยบริการสุขภาพใช้&lt;/font&gt;&lt;font style=&quot;font-size: 12px;&quot; face=&quot;Helvetica&quot;&gt;บันทึกและรายงานผลการจัดบริการชั่วคราว&lt;/font&gt;&lt;font style=&quot;font-size: 12px; font-weight: normal;&quot; face=&quot;Helvetica&quot;&gt;&amp;nbsp;&lt;/font&gt;&lt;span style=&quot;font-weight: normal; font-family: Helvetica; background-color: initial;&quot;&gt;ซึ่งสามารถเข้าถึงได้ที่ http://www.prepthai.net/&lt;/span&gt;&lt;/div&gt;" style="text;html=1;strokeColor=none;fillColor=none;align=left;verticalAlign=top;whiteSpace=wrap;rounded=0;fontFamily=Tahoma;fontStyle=1;fontSize=18;" parent="hd3hHbkQDl4NFfRmFZ6i-3" vertex="1">
          <mxGeometry x="1150" y="30" width="250" height="70" as="geometry" />
        </mxCell>
        <mxCell id="9v4CaL5_7gW5cO8myuor-20" value="บันทึกข้อมูลตามแบบฟอร์ม &lt;br&gt;Index partner testing&lt;br&gt;(7 หัวข้อ)" style="shape=step;perimeter=stepPerimeter;whiteSpace=wrap;html=1;fixedSize=1;" parent="hd3hHbkQDl4NFfRmFZ6i-3" vertex="1">
          <mxGeometry x="70" y="35" width="200" height="65" as="geometry" />
        </mxCell>
        <mxCell id="9v4CaL5_7gW5cO8myuor-22" value="ผลการดำเนินงานและสามารถใช้ข้อมูล&lt;br&gt;ในการติดตาม พัฒนาบริการของหน่วยบริการ&lt;br&gt;สุขภาพได้ด้วยตนเอง" style="rounded=1;whiteSpace=wrap;html=1;arcSize=50;" parent="hd3hHbkQDl4NFfRmFZ6i-3" vertex="1">
          <mxGeometry x="840" y="30" width="230" height="55" as="geometry" />
        </mxCell>
        <mxCell id="9v4CaL5_7gW5cO8myuor-16" value="NAP สปสช." style="swimlane;html=1;startSize=20;horizontal=0;fontFamily=Tahoma;strokeColor=#666666;" parent="hd3hHbkQDl4NFfRmFZ6i-2" vertex="1">
          <mxGeometry x="20" y="130" width="1440" height="130" as="geometry" />
        </mxCell>
        <mxCell id="hd3hHbkQDl4NFfRmFZ6i-16" value="NAP+" style="shape=cylinder3;whiteSpace=wrap;html=1;boundedLbl=1;backgroundOutline=1;size=10;" parent="9v4CaL5_7gW5cO8myuor-16" vertex="1">
          <mxGeometry x="320" y="30" width="136" height="50" as="geometry" />
        </mxCell>
        <mxCell id="9v4CaL5_7gW5cO8myuor-18" value="&lt;span style=&quot;font-size: 12px;&quot;&gt;&lt;span style=&quot;border-color: var(--border-color); font-family: Helvetica; font-size: 12px;&quot;&gt;&lt;span style=&quot;font-weight: normal;&quot;&gt;- &lt;/span&gt;ใน NAP&lt;span style=&quot;font-weight: normal;&quot;&gt; มีเพียง&lt;/span&gt;&lt;/span&gt;&lt;span style=&quot;font-weight: normal;&quot;&gt;แบบฟอร์มการให้บริการปรึกษา (VCT) และส่งตรวจหาเชื้อเอชไอวีเท่านั้น ซึ่ง&lt;/span&gt;ตัวแปรไม่เพียงพอ&lt;span style=&quot;font-weight: normal;&quot;&gt;&amp;nbsp;&lt;/span&gt;&lt;span style=&quot;font-weight: normal; font-family: Helvetica; font-size: 12px;&quot;&gt;และ&lt;/span&gt;&lt;span style=&quot;font-family: Helvetica; font-size: 12px;&quot;&gt;ยังไม่สามารถติดตาม&lt;/span&gt;&lt;span style=&quot;font-weight: normal; font-family: Helvetica; font-size: 12px;&quot;&gt;ความก้าวหน้าการดำเนินงานการจัดบริการได้&lt;/span&gt;&lt;br&gt;&lt;/span&gt;" style="text;html=1;strokeColor=none;fillColor=none;align=left;verticalAlign=top;whiteSpace=wrap;rounded=0;fontFamily=Tahoma;fontStyle=1;fontSize=18;" parent="9v4CaL5_7gW5cO8myuor-16" vertex="1">
          <mxGeometry x="1150" y="15" width="250" height="100" as="geometry" />
        </mxCell>
        <mxCell id="hd3hHbkQDl4NFfRmFZ6i-5" value="ก. ป้องกัน" style="swimlane;html=1;startSize=20;horizontal=0;fontFamily=Tahoma;strokeColor=#666666;" parent="hd3hHbkQDl4NFfRmFZ6i-2" vertex="1">
          <mxGeometry x="20" y="260" width="1440" height="120" as="geometry" />
        </mxCell>
        <mxCell id="hd3hHbkQDl4NFfRmFZ6i-6" style="edgeStyle=orthogonalEdgeStyle;rounded=0;orthogonalLoop=1;jettySize=auto;html=1;exitX=1;exitY=0.5;exitDx=0;exitDy=0;exitPerimeter=0;" parent="hd3hHbkQDl4NFfRmFZ6i-5" source="hd3hHbkQDl4NFfRmFZ6i-7" target="hd3hHbkQDl4NFfRmFZ6i-10" edge="1">
          <mxGeometry relative="1" as="geometry" />
        </mxCell>
        <mxCell id="hd3hHbkQDl4NFfRmFZ6i-7" value="prepthai.net" style="shape=cylinder3;whiteSpace=wrap;html=1;boundedLbl=1;backgroundOutline=1;size=10;" parent="hd3hHbkQDl4NFfRmFZ6i-5" vertex="1">
          <mxGeometry x="320" y="32.5" width="136" height="67.5" as="geometry" />
        </mxCell>
        <mxCell id="hd3hHbkQDl4NFfRmFZ6i-8" value="Start" style="rounded=1;whiteSpace=wrap;html=1;arcSize=50;" parent="hd3hHbkQDl4NFfRmFZ6i-5" vertex="1">
          <mxGeometry x="40" y="53" width="60" height="30" as="geometry" />
        </mxCell>
        <mxCell id="hd3hHbkQDl4NFfRmFZ6i-9" style="edgeStyle=orthogonalEdgeStyle;rounded=0;orthogonalLoop=1;jettySize=auto;html=1;entryX=0;entryY=0.5;entryDx=0;entryDy=0;" parent="hd3hHbkQDl4NFfRmFZ6i-5" source="hd3hHbkQDl4NFfRmFZ6i-10" target="hd3hHbkQDl4NFfRmFZ6i-14" edge="1">
          <mxGeometry relative="1" as="geometry">
            <mxPoint x="1220" y="60" as="targetPoint" />
          </mxGeometry>
        </mxCell>
        <mxCell id="hd3hHbkQDl4NFfRmFZ6i-10" value="เรียกดูรายงาน&lt;br&gt;ผลการดำเนินงาน" style="shape=step;perimeter=stepPerimeter;whiteSpace=wrap;html=1;fixedSize=1;" parent="hd3hHbkQDl4NFfRmFZ6i-5" vertex="1">
          <mxGeometry x="830" y="33.75" width="140" height="65" as="geometry" />
        </mxCell>
        <mxCell id="hd3hHbkQDl4NFfRmFZ6i-11" value="" style="edgeStyle=orthogonalEdgeStyle;rounded=0;orthogonalLoop=1;jettySize=auto;html=1;exitX=1;exitY=0.5;exitDx=0;exitDy=0;entryX=0;entryY=0;entryDx=0;entryDy=36.25;entryPerimeter=0;" parent="hd3hHbkQDl4NFfRmFZ6i-5" source="hd3hHbkQDl4NFfRmFZ6i-12" target="hd3hHbkQDl4NFfRmFZ6i-7" edge="1">
          <mxGeometry relative="1" as="geometry" />
        </mxCell>
        <mxCell id="hd3hHbkQDl4NFfRmFZ6i-12" value="พัฒนาระบบ&lt;br style=&quot;border-color: var(--border-color); font-family: Helvetica;&quot;&gt;&lt;span style=&quot;font-family: Helvetica;&quot;&gt;prepthai.net&lt;/span&gt;" style="rounded=0;whiteSpace=wrap;html=1;fontFamily=Tahoma;fontSize=12;fontColor=#000000;align=center;" parent="hd3hHbkQDl4NFfRmFZ6i-5" vertex="1">
          <mxGeometry x="140" y="43.5" width="120" height="50" as="geometry" />
        </mxCell>
        <mxCell id="hd3hHbkQDl4NFfRmFZ6i-13" value="" style="edgeStyle=orthogonalEdgeStyle;rounded=0;orthogonalLoop=1;jettySize=auto;html=1;fontFamily=Tahoma;exitX=1;exitY=0.5;exitDx=0;exitDy=0;entryX=0;entryY=0.5;entryDx=0;entryDy=0;" parent="hd3hHbkQDl4NFfRmFZ6i-5" source="hd3hHbkQDl4NFfRmFZ6i-8" target="hd3hHbkQDl4NFfRmFZ6i-12" edge="1">
          <mxGeometry relative="1" as="geometry">
            <mxPoint x="199" y="430" as="sourcePoint" />
            <mxPoint x="340" y="430" as="targetPoint" />
          </mxGeometry>
        </mxCell>
        <mxCell id="hd3hHbkQDl4NFfRmFZ6i-14" value="&lt;div&gt;ขยายผลรูปแบบการติดตามคุณภาพ&lt;/div&gt;&lt;div&gt;การจัดบริการ Index partner testing&lt;/div&gt;" style="rounded=1;whiteSpace=wrap;html=1;arcSize=50;" parent="hd3hHbkQDl4NFfRmFZ6i-5" vertex="1">
          <mxGeometry x="1030" y="36.25" width="240" height="60" as="geometry" />
        </mxCell>
        <mxCell id="hd3hHbkQDl4NFfRmFZ6i-17" value="สคร./สสจ." style="swimlane;html=1;startSize=20;horizontal=0;fontFamily=Tahoma;strokeColor=#666666;" parent="hd3hHbkQDl4NFfRmFZ6i-2" vertex="1">
          <mxGeometry x="20" y="380" width="1440" height="120" as="geometry" />
        </mxCell>
        <mxCell id="hd3hHbkQDl4NFfRmFZ6i-18" style="edgeStyle=orthogonalEdgeStyle;rounded=0;orthogonalLoop=1;jettySize=auto;html=1;" parent="hd3hHbkQDl4NFfRmFZ6i-17" source="hd3hHbkQDl4NFfRmFZ6i-19" target="hd3hHbkQDl4NFfRmFZ6i-20" edge="1">
          <mxGeometry relative="1" as="geometry">
            <mxPoint x="1080" y="60" as="targetPoint" />
          </mxGeometry>
        </mxCell>
        <mxCell id="hd3hHbkQDl4NFfRmFZ6i-19" value="ติดตามสถิติการให้คำปรึกษา VCT&lt;br style=&quot;border-color: var(--border-color);&quot;&gt;และตรวจหาการติดเชื้อเอชไอวี&amp;nbsp;&lt;br&gt;รายพื้นที่ เขตฯ จังหวัด หน่วยบริการ" style="shape=step;perimeter=stepPerimeter;whiteSpace=wrap;html=1;fixedSize=1;" parent="hd3hHbkQDl4NFfRmFZ6i-17" vertex="1">
          <mxGeometry x="570" y="25" width="220" height="65" as="geometry" />
        </mxCell>
        <mxCell id="hd3hHbkQDl4NFfRmFZ6i-20" value="ออกมาตรการและถ่ายทอด&lt;br style=&quot;border-color: var(--border-color); font-family: Tahoma;&quot;&gt;&lt;span style=&quot;font-family: Tahoma;&quot;&gt;ไปยังหน่วยบริการ&lt;/span&gt;" style="rounded=1;whiteSpace=wrap;html=1;arcSize=50;" parent="hd3hHbkQDl4NFfRmFZ6i-17" vertex="1">
          <mxGeometry x="890" y="27.5" width="160" height="60" as="geometry" />
        </mxCell>
        <mxCell id="hd3hHbkQDl4NFfRmFZ6i-36" value="" style="edgeStyle=orthogonalEdgeStyle;rounded=0;orthogonalLoop=1;jettySize=auto;html=1;exitX=1;exitY=0;exitDx=0;exitDy=45.625;exitPerimeter=0;entryX=0.25;entryY=0;entryDx=0;entryDy=0;dashed=1;" parent="hd3hHbkQDl4NFfRmFZ6i-2" source="hd3hHbkQDl4NFfRmFZ6i-7" target="hd3hHbkQDl4NFfRmFZ6i-19" edge="1">
          <mxGeometry relative="1" as="geometry" />
        </mxCell>
        <mxCell id="hd3hHbkQDl4NFfRmFZ6i-37" value="&amp;nbsp;ผ่านหน้าเว็บ&amp;nbsp;" style="edgeLabel;html=1;align=center;verticalAlign=middle;resizable=0;points=[];" parent="hd3hHbkQDl4NFfRmFZ6i-36" vertex="1" connectable="0">
          <mxGeometry x="0.1261" relative="1" as="geometry">
            <mxPoint x="-24" as="offset" />
          </mxGeometry>
        </mxCell>
        <mxCell id="hd3hHbkQDl4NFfRmFZ6i-39" style="edgeStyle=orthogonalEdgeStyle;rounded=0;orthogonalLoop=1;jettySize=auto;html=1;entryX=0.5;entryY=0;entryDx=0;entryDy=0;exitX=1;exitY=1;exitDx=0;exitDy=-10;exitPerimeter=0;jumpStyle=arc;" parent="hd3hHbkQDl4NFfRmFZ6i-2" source="hd3hHbkQDl4NFfRmFZ6i-16" target="hd3hHbkQDl4NFfRmFZ6i-19" edge="1">
          <mxGeometry relative="1" as="geometry" />
        </mxCell>
        <mxCell id="hd3hHbkQDl4NFfRmFZ6i-40" value="&amp;nbsp;NAP Report&amp;nbsp;" style="edgeLabel;html=1;align=center;verticalAlign=middle;resizable=0;points=[];" parent="hd3hHbkQDl4NFfRmFZ6i-39" vertex="1" connectable="0">
          <mxGeometry x="-0.25" y="1" relative="1" as="geometry">
            <mxPoint x="-22" y="1" as="offset" />
          </mxGeometry>
        </mxCell>
        <mxCell id="hd3hHbkQDl4NFfRmFZ6i-38" style="edgeStyle=orthogonalEdgeStyle;rounded=0;orthogonalLoop=1;jettySize=auto;html=1;entryX=0.855;entryY=0;entryDx=0;entryDy=2.9;entryPerimeter=0;exitX=0.5;exitY=1;exitDx=0;exitDy=0;" parent="hd3hHbkQDl4NFfRmFZ6i-2" source="hd3hHbkQDl4NFfRmFZ6i-23" target="hd3hHbkQDl4NFfRmFZ6i-16" edge="1">
          <mxGeometry relative="1" as="geometry" />
        </mxCell>
        <mxCell id="hd3hHbkQDl4NFfRmFZ6i-43" style="edgeStyle=orthogonalEdgeStyle;rounded=0;orthogonalLoop=1;jettySize=auto;html=1;entryX=0.5;entryY=1;entryDx=0;entryDy=0;exitX=1;exitY=0;exitDx=0;exitDy=10;exitPerimeter=0;" parent="hd3hHbkQDl4NFfRmFZ6i-2" source="hd3hHbkQDl4NFfRmFZ6i-16" target="hd3hHbkQDl4NFfRmFZ6i-24" edge="1">
          <mxGeometry relative="1" as="geometry" />
        </mxCell>
        <mxCell id="9v4CaL5_7gW5cO8myuor-5" value="&amp;nbsp;NAP +&amp;nbsp;" style="edgeLabel;html=1;align=center;verticalAlign=middle;resizable=0;points=[];" parent="hd3hHbkQDl4NFfRmFZ6i-43" vertex="1" connectable="0">
          <mxGeometry x="0.0982" y="-1" relative="1" as="geometry">
            <mxPoint as="offset" />
          </mxGeometry>
        </mxCell>
        <mxCell id="9v4CaL5_7gW5cO8myuor-2" style="edgeStyle=orthogonalEdgeStyle;rounded=0;orthogonalLoop=1;jettySize=auto;html=1;entryX=0.5;entryY=0;entryDx=0;entryDy=0;entryPerimeter=0;" parent="hd3hHbkQDl4NFfRmFZ6i-2" source="hd3hHbkQDl4NFfRmFZ6i-16" target="hd3hHbkQDl4NFfRmFZ6i-7" edge="1">
          <mxGeometry relative="1" as="geometry" />
        </mxCell>
        <mxCell id="9v4CaL5_7gW5cO8myuor-3" value="&lt;span style=&quot;background-color: rgb(255, 204, 204);&quot;&gt;* ขอข้อมูลเพื่อนำเข้ารายงาน&amp;nbsp;&lt;br&gt;ผ่านการเชื่อมต่อ / ไฟล์?&amp;nbsp;&lt;/span&gt;" style="edgeLabel;html=1;align=center;verticalAlign=middle;resizable=0;points=[];" parent="9v4CaL5_7gW5cO8myuor-2" vertex="1" connectable="0">
          <mxGeometry x="-0.4027" y="2" relative="1" as="geometry">
            <mxPoint as="offset" />
          </mxGeometry>
        </mxCell>
        <mxCell id="9v4CaL5_7gW5cO8myuor-21" style="edgeStyle=orthogonalEdgeStyle;rounded=0;orthogonalLoop=1;jettySize=auto;html=1;entryX=0;entryY=0;entryDx=0;entryDy=18.75;entryPerimeter=0;" parent="hd3hHbkQDl4NFfRmFZ6i-2" source="9v4CaL5_7gW5cO8myuor-20" target="hd3hHbkQDl4NFfRmFZ6i-7" edge="1">
          <mxGeometry relative="1" as="geometry" />
        </mxCell>
        <mxCell id="9v4CaL5_7gW5cO8myuor-24" style="edgeStyle=orthogonalEdgeStyle;rounded=0;orthogonalLoop=1;jettySize=auto;html=1;exitX=1;exitY=0;exitDx=0;exitDy=21.875;exitPerimeter=0;entryX=0;entryY=0.5;entryDx=0;entryDy=0;jumpStyle=arc;" parent="hd3hHbkQDl4NFfRmFZ6i-2" source="hd3hHbkQDl4NFfRmFZ6i-7" target="9v4CaL5_7gW5cO8myuor-22" edge="1">
          <mxGeometry relative="1" as="geometry">
            <Array as="points">
              <mxPoint x="830" y="314" />
              <mxPoint x="830" y="58" />
            </Array>
          </mxGeometry>
        </mxCell>
        <mxCell id="hd3hHbkQDl4NFfRmFZ6i-45" value="มาตรการ:&amp;nbsp;&lt;span style=&quot;font-weight: normal;&quot;&gt;ลดจำนวนผู้ติดเชื้อเอชไอวีรายใหม่ให้เหลือปีละไม่เกิน 1,000 คน ในยุทธศาสตร์แห่งชาติว่าด้วยการยุติปัญหาเอดส์ พ.ศ. 2560-2573&lt;/span&gt;" style="text;html=1;strokeColor=none;fillColor=none;align=left;verticalAlign=top;whiteSpace=wrap;rounded=0;fontFamily=Tahoma;fontStyle=1;fontSize=18;" parent="hd3hHbkQDl4NFfRmFZ6i-1" vertex="1">
          <mxGeometry x="40" y="70" width="1280" height="30" as="geometry" />
        </mxCell>
        <mxCell id="hd3hHbkQDl4NFfRmFZ6i-46" value="กลุ่มงาน:&amp;nbsp;&lt;span style=&quot;font-weight: normal;&quot;&gt;กลุ่มพัฒนาและส่งเสริมเทคโนโลยีการป้องกัน&lt;/span&gt;" style="text;html=1;strokeColor=none;fillColor=none;align=left;verticalAlign=top;whiteSpace=wrap;rounded=0;fontFamily=Tahoma;fontStyle=1;fontSize=18;" parent="hd3hHbkQDl4NFfRmFZ6i-1" vertex="1">
          <mxGeometry x="40" y="40" width="1280" height="30" as="geometry" />
        </mxCell>
        <mxCell id="hd3hHbkQDl4NFfRmFZ6i-47" value="กิจกรรมที่ดำเนินการ:&amp;nbsp;" style="text;html=1;strokeColor=none;fillColor=none;align=left;verticalAlign=top;whiteSpace=wrap;rounded=0;fontFamily=Tahoma;fontStyle=1;fontSize=18;" parent="hd3hHbkQDl4NFfRmFZ6i-1" vertex="1">
          <mxGeometry x="40" y="100" width="200" height="30" as="geometry" />
        </mxCell>
        <mxCell id="hd3hHbkQDl4NFfRmFZ6i-48" value="1. Condoms&amp;nbsp;สนับสนุนถุงยางอนามัยและสารหล่อลื่น&lt;br&gt;2.&amp;nbsp;PrEP การจ่ายยา PrEP ในกลุ่มประชากร&lt;br&gt;3.&amp;nbsp;Index partner testing&amp;nbsp;การให้บริการชวนคู่ของผู้ติดเชื้อเอชไอวีมาตรวจหาการติดเชื้อเอชไอวี&lt;br&gt;4.&amp;nbsp;Youth กลุ่มเยาวชน&amp;nbsp;" style="text;html=1;strokeColor=none;fillColor=none;align=left;verticalAlign=top;whiteSpace=wrap;rounded=0;fontFamily=Tahoma;fontStyle=0;fontSize=18;" parent="hd3hHbkQDl4NFfRmFZ6i-1" vertex="1">
          <mxGeometry x="240" y="100" width="920" height="90" as="geometry" />
        </mxCell>
        <mxCell id="hd3hHbkQDl4NFfRmFZ6i-49" value="กระทำในระบบ" style="shape=step;perimeter=stepPerimeter;whiteSpace=wrap;html=1;fixedSize=1;" parent="hd3hHbkQDl4NFfRmFZ6i-1" vertex="1">
          <mxGeometry x="20" y="765" width="120" height="40" as="geometry" />
        </mxCell>
        <mxCell id="hd3hHbkQDl4NFfRmFZ6i-50" value="กิจกรรม/การดำเนินการ" style="rounded=0;whiteSpace=wrap;html=1;" parent="hd3hHbkQDl4NFfRmFZ6i-1" vertex="1">
          <mxGeometry x="160" y="765" width="130" height="40" as="geometry" />
        </mxCell>
        <mxCell id="hd3hHbkQDl4NFfRmFZ6i-51" value="ฐานข้อมูล" style="shape=cylinder3;whiteSpace=wrap;html=1;boundedLbl=1;backgroundOutline=1;size=10;" parent="hd3hHbkQDl4NFfRmFZ6i-1" vertex="1">
          <mxGeometry x="320" y="760" width="100" height="50" as="geometry" />
        </mxCell>
        <mxCell id="hd3hHbkQDl4NFfRmFZ6i-52" value="&lt;b&gt;แหล่งที่มาของข้อมูล&lt;/b&gt;&lt;br&gt;1. หน่วยบริการบันทึกในแบบบันทึกบริการปรึกษาและตรวจหาการติดเชื้อเอชไอวี (VCT form)&amp;nbsp;&lt;br&gt;2. หน่วยบริการบันทึกข้อมูลตามแบบฟอร์ม Index partner testing" style="text;html=1;strokeColor=none;fillColor=none;align=left;verticalAlign=top;whiteSpace=wrap;rounded=0;fontFamily=Tahoma;fontStyle=0;fontSize=18;" parent="hd3hHbkQDl4NFfRmFZ6i-1" vertex="1">
          <mxGeometry x="460" y="710" width="440" height="90" as="geometry" />
        </mxCell>
        <mxCell id="hd3hHbkQDl4NFfRmFZ6i-53" value="&lt;b&gt;แหล่งที่ไปของข้อมูล&lt;br&gt;&lt;/b&gt;1. กลุ่มป้องกันฯ ดึงข้อมูลจากในระบบเพื่อขยายผลรูปแบบการติดตามคุณภาพการจัดบริการ index partner testing&lt;br&gt;2. หน่วยบริการ ดึงผลการดำเนินงานและสามารถใช้ข้อมูล&lt;div&gt;ในการติดตาม พัฒนาบริการของหน่วยบริการ ผ่านเว็บ prepthai&lt;/div&gt;3. ส่วนพื้นที่ ดึงข้อมูลสรุปผลมาออกมาตรการและถ่ายทอดไปยังหน่วยบริการ" style="text;html=1;strokeColor=none;fillColor=none;align=left;verticalAlign=top;whiteSpace=wrap;rounded=0;fontFamily=Tahoma;fontStyle=0;fontSize=18;" parent="hd3hHbkQDl4NFfRmFZ6i-1" vertex="1">
          <mxGeometry x="920" y="710" width="560" height="130" as="geometry" />
        </mxCell>
        <mxCell id="hd3hHbkQDl4NFfRmFZ6i-54" value="" style="endArrow=none;dashed=1;html=1;dashPattern=1 3;strokeWidth=2;rounded=0;" parent="hd3hHbkQDl4NFfRmFZ6i-1" edge="1">
          <mxGeometry width="50" height="50" relative="1" as="geometry">
            <mxPoint x="907" y="850" as="sourcePoint" />
            <mxPoint x="907" y="710" as="targetPoint" />
          </mxGeometry>
        </mxCell>
        <UserObject label="" link="data:page/id,prtHgNgQTEPvFCAcTncT" id="gSM-REg7Kj62KtVbUEZ3-0">
          <mxCell style="html=1;strokeWidth=1;shadow=0;dashed=0;shape=mxgraph.ios7.misc.link;fillColor=#4CDA64;strokeColor=none;buttonText=;strokeColor2=#222222;fontColor=#222222;fontSize=8;verticalLabelPosition=bottom;verticalAlign=top;align=center;sketch=0;" parent="hd3hHbkQDl4NFfRmFZ6i-1" vertex="1">
            <mxGeometry x="217" y="107" width="20" height="20" as="geometry" />
          </mxCell>
        </UserObject>
        <UserObject label="" link="data:page/id,7i-LERVDmYqNg7XQ0lNa" id="gSM-REg7Kj62KtVbUEZ3-1">
          <mxCell style="html=1;strokeWidth=1;shadow=0;dashed=0;shape=mxgraph.ios7.misc.link;fillColor=#4CDA64;strokeColor=none;buttonText=;strokeColor2=#222222;fontColor=#222222;fontSize=8;verticalLabelPosition=bottom;verticalAlign=top;align=center;sketch=0;" parent="hd3hHbkQDl4NFfRmFZ6i-1" vertex="1">
            <mxGeometry x="217" y="128" width="20" height="20" as="geometry" />
          </mxCell>
        </UserObject>
        <UserObject label="" link="data:page/id,HAeoyOpSyOvsjUOocYrg" id="gSM-REg7Kj62KtVbUEZ3-2">
          <mxCell style="html=1;strokeWidth=1;shadow=0;dashed=0;shape=mxgraph.ios7.misc.link;fillColor=#4CDA64;strokeColor=none;buttonText=;strokeColor2=#222222;fontColor=#222222;fontSize=8;verticalLabelPosition=bottom;verticalAlign=top;align=center;sketch=0;" parent="hd3hHbkQDl4NFfRmFZ6i-1" vertex="1">
            <mxGeometry x="217" y="150" width="20" height="20" as="geometry" />
          </mxCell>
        </UserObject>
        <UserObject label="" link="data:page/id,YElmQMGVYzcu0724_LoY" id="gSM-REg7Kj62KtVbUEZ3-3">
          <mxCell style="html=1;strokeWidth=1;shadow=0;dashed=0;shape=mxgraph.ios7.misc.link;fillColor=#4CDA64;strokeColor=none;buttonText=;strokeColor2=#222222;fontColor=#222222;fontSize=8;verticalLabelPosition=bottom;verticalAlign=top;align=center;sketch=0;" parent="hd3hHbkQDl4NFfRmFZ6i-1" vertex="1">
            <mxGeometry x="217" y="172" width="20" height="20" as="geometry" />
          </mxCell>
        </UserObject>
        <mxCell id="9v4CaL5_7gW5cO8myuor-0" value="&lt;span style=&quot;font-weight: normal;&quot;&gt;Index testing สามารถเพิ่มการเข้ารับบริการตรวจเลือดและช่วยหาคู่ที่ยังไม่ทราบสถานะการติดเชื้อเอชไอวีเพื่อส่งเข้ารับบริการที่เหมาะสม โดยเน้นผู้รับบริการเป็นศูนย์กลาง&lt;/span&gt;" style="text;html=1;strokeColor=none;fillColor=none;align=left;verticalAlign=top;whiteSpace=wrap;rounded=0;fontFamily=Tahoma;fontStyle=1;fontSize=18;" parent="hd3hHbkQDl4NFfRmFZ6i-1" vertex="1">
          <mxGeometry x="790" y="870" width="280" height="120" as="geometry" />
        </mxCell>
        <mxCell id="9v4CaL5_7gW5cO8myuor-1" value="&lt;span style=&quot;font-weight: normal;&quot;&gt;เข้าสู่บริการปรึกษาและตรวจหาการติดเชื้อเอชไอวีด้วยความสมัครใจ สนับสนุนการบรรลุเป้าหมายที่ให้อย่างน้อย ร้อยละ 95 ของผู้ติดเชื้อเอชไอวีได้ทราบสถานะของตนเอง และส่งต่อเข้าสู่บริการป้องกันและการดูแลรักษาด้วยยาต้านเอชไอวีโดยเร็ว&lt;/span&gt;" style="text;html=1;strokeColor=none;fillColor=none;align=left;verticalAlign=top;whiteSpace=wrap;rounded=0;fontFamily=Tahoma;fontStyle=1;fontSize=18;" parent="hd3hHbkQDl4NFfRmFZ6i-1" vertex="1">
          <mxGeometry x="1080" y="870" width="400" height="120" as="geometry" />
        </mxCell>
      </root>
    </mxGraphModel>
  </diagram>
  <diagram name="Youth" id="YElmQMGVYzcu0724_LoY">
    <mxGraphModel dx="679" dy="374" grid="1" gridSize="10" guides="1" tooltips="1" connect="1" arrows="1" fold="1" page="1" pageScale="1" pageWidth="850" pageHeight="1100" math="0" shadow="0">
      <root>
        <mxCell id="cJ1jjzPTOVkGGwvJorsa-0" />
        <mxCell id="cJ1jjzPTOVkGGwvJorsa-1" parent="cJ1jjzPTOVkGGwvJorsa-0" />
        <mxCell id="cJ1jjzPTOVkGGwvJorsa-2" value="PrEP" style="swimlane;html=1;childLayout=stackLayout;resizeParent=1;resizeParentMax=0;horizontal=0;startSize=20;horizontalStack=0;fontFamily=Tahoma;strokeColor=#666666;" parent="cJ1jjzPTOVkGGwvJorsa-1" vertex="1">
          <mxGeometry x="40" y="200" width="1420" height="730" as="geometry" />
        </mxCell>
        <mxCell id="2Gn_oCHIeuXlu-hTkLWC-0" value="NAP สปสช." style="swimlane;html=1;startSize=20;horizontal=0;fontFamily=Tahoma;strokeColor=#666666;" vertex="1" parent="cJ1jjzPTOVkGGwvJorsa-2">
          <mxGeometry x="20" width="1400" height="120" as="geometry" />
        </mxCell>
        <mxCell id="PrR7tlMusXNCugDWh7jb-2" style="edgeStyle=orthogonalEdgeStyle;rounded=0;orthogonalLoop=1;jettySize=auto;html=1;exitX=1;exitY=0.5;exitDx=0;exitDy=0;exitPerimeter=0;" edge="1" parent="2Gn_oCHIeuXlu-hTkLWC-0" source="2Gn_oCHIeuXlu-hTkLWC-1" target="FMdj6XfcWLOoJzQdvTcJ-3">
          <mxGeometry relative="1" as="geometry" />
        </mxCell>
        <mxCell id="2Gn_oCHIeuXlu-hTkLWC-1" value="NAP+" style="shape=cylinder3;whiteSpace=wrap;html=1;boundedLbl=1;backgroundOutline=1;size=10;" vertex="1" parent="2Gn_oCHIeuXlu-hTkLWC-0">
          <mxGeometry x="280" y="35" width="136" height="50" as="geometry" />
        </mxCell>
        <mxCell id="FMdj6XfcWLOoJzQdvTcJ-1" style="edgeStyle=orthogonalEdgeStyle;rounded=0;orthogonalLoop=1;jettySize=auto;html=1;" edge="1" parent="2Gn_oCHIeuXlu-hTkLWC-0" source="FMdj6XfcWLOoJzQdvTcJ-0" target="2Gn_oCHIeuXlu-hTkLWC-1">
          <mxGeometry relative="1" as="geometry" />
        </mxCell>
        <mxCell id="FMdj6XfcWLOoJzQdvTcJ-0" value="ชุดสิทธิประโยชน์&lt;br&gt;การชดเชยการคัดกรอง VCT" style="rounded=0;whiteSpace=wrap;html=1;" vertex="1" parent="2Gn_oCHIeuXlu-hTkLWC-0">
          <mxGeometry x="70" y="30" width="160" height="60" as="geometry" />
        </mxCell>
        <mxCell id="FMdj6XfcWLOoJzQdvTcJ-3" value="ข้อมูลตรวจคัดกรอง HIV/Syphilis, &lt;br&gt;ประเมินความเสี่ยง HIV" style="shape=step;perimeter=stepPerimeter;whiteSpace=wrap;html=1;fixedSize=1;" vertex="1" parent="2Gn_oCHIeuXlu-hTkLWC-0">
          <mxGeometry x="470" y="33.75" width="191" height="52.5" as="geometry" />
        </mxCell>
        <mxCell id="PrR7tlMusXNCugDWh7jb-1" value="? รับข้อมูลจากหลังบ้าน" style="text;html=1;align=center;verticalAlign=middle;resizable=0;points=[];autosize=1;strokeColor=#b85450;fillColor=#f8cecc;" vertex="1" parent="2Gn_oCHIeuXlu-hTkLWC-0">
          <mxGeometry x="495.5" y="80" width="140" height="30" as="geometry" />
        </mxCell>
        <mxCell id="cJ1jjzPTOVkGGwvJorsa-5" value="ก. ป้องกัน" style="swimlane;html=1;startSize=20;horizontal=0;fontFamily=Tahoma;strokeColor=#666666;" parent="cJ1jjzPTOVkGGwvJorsa-2" vertex="1">
          <mxGeometry x="20" y="120" width="1400" height="120" as="geometry" />
        </mxCell>
        <mxCell id="cJ1jjzPTOVkGGwvJorsa-6" style="edgeStyle=orthogonalEdgeStyle;rounded=0;orthogonalLoop=1;jettySize=auto;html=1;exitX=1;exitY=0.5;exitDx=0;exitDy=0;exitPerimeter=0;" parent="cJ1jjzPTOVkGGwvJorsa-5" source="cJ1jjzPTOVkGGwvJorsa-7" target="cJ1jjzPTOVkGGwvJorsa-10" edge="1">
          <mxGeometry relative="1" as="geometry" />
        </mxCell>
        <mxCell id="cJ1jjzPTOVkGGwvJorsa-7" value="prepthai.net" style="shape=cylinder3;whiteSpace=wrap;html=1;boundedLbl=1;backgroundOutline=1;size=10;" parent="cJ1jjzPTOVkGGwvJorsa-5" vertex="1">
          <mxGeometry x="280" y="25" width="136" height="70" as="geometry" />
        </mxCell>
        <mxCell id="cJ1jjzPTOVkGGwvJorsa-8" value="Start" style="rounded=1;whiteSpace=wrap;html=1;arcSize=50;" parent="cJ1jjzPTOVkGGwvJorsa-5" vertex="1">
          <mxGeometry x="40" y="45" width="60" height="30" as="geometry" />
        </mxCell>
        <mxCell id="cJ1jjzPTOVkGGwvJorsa-9" style="edgeStyle=orthogonalEdgeStyle;rounded=0;orthogonalLoop=1;jettySize=auto;html=1;entryX=0;entryY=0.5;entryDx=0;entryDy=0;" parent="cJ1jjzPTOVkGGwvJorsa-5" source="cJ1jjzPTOVkGGwvJorsa-10" target="cJ1jjzPTOVkGGwvJorsa-14" edge="1">
          <mxGeometry relative="1" as="geometry">
            <mxPoint x="1220" y="60" as="targetPoint" />
          </mxGeometry>
        </mxCell>
        <mxCell id="cJ1jjzPTOVkGGwvJorsa-10" value="เรียกดูรายงาน&lt;br&gt;ผลการดำเนินงาน" style="shape=step;perimeter=stepPerimeter;whiteSpace=wrap;html=1;fixedSize=1;" parent="cJ1jjzPTOVkGGwvJorsa-5" vertex="1">
          <mxGeometry x="900" y="27.5" width="190" height="65" as="geometry" />
        </mxCell>
        <mxCell id="cJ1jjzPTOVkGGwvJorsa-11" value="" style="edgeStyle=orthogonalEdgeStyle;rounded=0;orthogonalLoop=1;jettySize=auto;html=1;exitX=1;exitY=0.5;exitDx=0;exitDy=0;entryX=0;entryY=0.5;entryDx=0;entryDy=0;entryPerimeter=0;" parent="cJ1jjzPTOVkGGwvJorsa-5" source="cJ1jjzPTOVkGGwvJorsa-12" target="cJ1jjzPTOVkGGwvJorsa-7" edge="1">
          <mxGeometry relative="1" as="geometry" />
        </mxCell>
        <mxCell id="cJ1jjzPTOVkGGwvJorsa-12" value="พัฒนาระบบ&lt;br style=&quot;border-color: var(--border-color); font-family: Helvetica;&quot;&gt;&lt;span style=&quot;font-family: Helvetica;&quot;&gt;prepthai.net&lt;/span&gt;" style="rounded=0;whiteSpace=wrap;html=1;fontFamily=Tahoma;fontSize=12;fontColor=#000000;align=center;" parent="cJ1jjzPTOVkGGwvJorsa-5" vertex="1">
          <mxGeometry x="140" y="35" width="90" height="50" as="geometry" />
        </mxCell>
        <mxCell id="cJ1jjzPTOVkGGwvJorsa-13" value="" style="edgeStyle=orthogonalEdgeStyle;rounded=0;orthogonalLoop=1;jettySize=auto;html=1;fontFamily=Tahoma;exitX=1;exitY=0.5;exitDx=0;exitDy=0;entryX=0;entryY=0.5;entryDx=0;entryDy=0;" parent="cJ1jjzPTOVkGGwvJorsa-5" source="cJ1jjzPTOVkGGwvJorsa-8" target="cJ1jjzPTOVkGGwvJorsa-12" edge="1">
          <mxGeometry relative="1" as="geometry">
            <mxPoint x="199" y="430" as="sourcePoint" />
            <mxPoint x="340" y="430" as="targetPoint" />
          </mxGeometry>
        </mxCell>
        <mxCell id="cJ1jjzPTOVkGGwvJorsa-14" value="วางแผน สนับสนุน ติดตาม พัฒนาศักยภาพหน่วยบริการสุขภาพในการจัดบริการเพร็พ (PrEP)" style="rounded=1;whiteSpace=wrap;html=1;arcSize=50;" parent="cJ1jjzPTOVkGGwvJorsa-5" vertex="1">
          <mxGeometry x="1140" y="30" width="240" height="60" as="geometry" />
        </mxCell>
        <mxCell id="cJ1jjzPTOVkGGwvJorsa-15" value="NAP สปสช." style="swimlane;html=1;startSize=20;horizontal=0;fontFamily=Tahoma;strokeColor=#666666;" parent="cJ1jjzPTOVkGGwvJorsa-2" vertex="1">
          <mxGeometry x="20" y="240" width="1400" height="120" as="geometry" />
        </mxCell>
        <mxCell id="cJ1jjzPTOVkGGwvJorsa-16" value="NAP+" style="shape=cylinder3;whiteSpace=wrap;html=1;boundedLbl=1;backgroundOutline=1;size=10;" parent="cJ1jjzPTOVkGGwvJorsa-15" vertex="1">
          <mxGeometry x="600" y="40" width="136" height="50" as="geometry" />
        </mxCell>
        <mxCell id="cJ1jjzPTOVkGGwvJorsa-17" value="สคร./สสจ." style="swimlane;html=1;startSize=20;horizontal=0;fontFamily=Tahoma;strokeColor=#666666;" parent="cJ1jjzPTOVkGGwvJorsa-2" vertex="1">
          <mxGeometry x="20" y="360" width="1400" height="120" as="geometry" />
        </mxCell>
        <mxCell id="cJ1jjzPTOVkGGwvJorsa-18" style="edgeStyle=orthogonalEdgeStyle;rounded=0;orthogonalLoop=1;jettySize=auto;html=1;" parent="cJ1jjzPTOVkGGwvJorsa-17" source="cJ1jjzPTOVkGGwvJorsa-19" target="cJ1jjzPTOVkGGwvJorsa-20" edge="1">
          <mxGeometry relative="1" as="geometry">
            <mxPoint x="1080" y="60" as="targetPoint" />
          </mxGeometry>
        </mxCell>
        <mxCell id="cJ1jjzPTOVkGGwvJorsa-19" value="? ติดตามสถานการณ์&lt;br&gt;การจ่ายยาฯ รายพื้นที่&lt;br&gt;เขตฯ จังหวัด หน่วยบริการ" style="shape=step;perimeter=stepPerimeter;whiteSpace=wrap;html=1;fixedSize=1;" parent="cJ1jjzPTOVkGGwvJorsa-17" vertex="1">
          <mxGeometry x="760" y="27.5" width="190" height="65" as="geometry" />
        </mxCell>
        <mxCell id="cJ1jjzPTOVkGGwvJorsa-20" value="ออกมาตรการและถ่ายทอด&lt;br style=&quot;border-color: var(--border-color); font-family: Tahoma;&quot;&gt;&lt;span style=&quot;font-family: Tahoma;&quot;&gt;ไปยังหน่วยบริการ&lt;/span&gt;" style="rounded=1;whiteSpace=wrap;html=1;arcSize=50;" parent="cJ1jjzPTOVkGGwvJorsa-17" vertex="1">
          <mxGeometry x="1009" y="30" width="160" height="60" as="geometry" />
        </mxCell>
        <mxCell id="cJ1jjzPTOVkGGwvJorsa-21" value="หน่วยบริการ" style="swimlane;html=1;startSize=20;horizontal=0;fontFamily=Tahoma;strokeColor=#666666;" parent="cJ1jjzPTOVkGGwvJorsa-2" vertex="1">
          <mxGeometry x="20" y="480" width="1400" height="120" as="geometry" />
        </mxCell>
        <mxCell id="cJ1jjzPTOVkGGwvJorsa-22" value="คีย์ข้อมูลเข้าระบบ&lt;br style=&quot;border-color: var(--border-color); font-family: Tahoma;&quot;&gt;&lt;span style=&quot;font-family: Tahoma;&quot;&gt;การจ่ายยาฯ&amp;nbsp;&lt;/span&gt;ความถี่: รายเดือน&lt;br&gt;*แล้วแต่รพ." style="shape=step;perimeter=stepPerimeter;whiteSpace=wrap;html=1;fixedSize=1;" parent="cJ1jjzPTOVkGGwvJorsa-21" vertex="1">
          <mxGeometry x="60" y="27.5" width="191" height="65" as="geometry" />
        </mxCell>
        <mxCell id="cJ1jjzPTOVkGGwvJorsa-23" value="คีย์ข้อมูลการจ่ายยาฯ เพื่อการ reimbursement จาก สปสช.&lt;br&gt;เป็นรายเคส" style="shape=step;perimeter=stepPerimeter;whiteSpace=wrap;html=1;fixedSize=1;" parent="cJ1jjzPTOVkGGwvJorsa-21" vertex="1">
          <mxGeometry x="370" y="27.5" width="201" height="65" as="geometry" />
        </mxCell>
        <mxCell id="cJ1jjzPTOVkGGwvJorsa-24" value="ติดตามสถานการณ์&lt;br&gt;การจ่ายยาฯ ของ รพ." style="shape=step;perimeter=stepPerimeter;whiteSpace=wrap;html=1;fixedSize=1;" parent="cJ1jjzPTOVkGGwvJorsa-21" vertex="1">
          <mxGeometry x="586" y="27.5" width="164" height="65" as="geometry" />
        </mxCell>
        <mxCell id="cJ1jjzPTOVkGGwvJorsa-25" value="NGO ภายนอก" style="swimlane;html=1;startSize=20;horizontal=0;fontFamily=Tahoma;strokeColor=#666666;" parent="cJ1jjzPTOVkGGwvJorsa-2" vertex="1">
          <mxGeometry x="20" y="600" width="1400" height="130" as="geometry" />
        </mxCell>
        <mxCell id="cJ1jjzPTOVkGGwvJorsa-26" value="ให้ความร่วมมือในการรายงาน&lt;br&gt;ยออดการจ่ายยาฯ เข้าระบบ" style="rounded=0;whiteSpace=wrap;html=1;fontFamily=Tahoma;fontSize=12;fontColor=#000000;align=center;" parent="cJ1jjzPTOVkGGwvJorsa-25" vertex="1">
          <mxGeometry x="400" y="35" width="189" height="60" as="geometry" />
        </mxCell>
        <mxCell id="cJ1jjzPTOVkGGwvJorsa-27" value="? มีการคีย์ในระบบ" style="text;html=1;align=center;verticalAlign=middle;resizable=0;points=[];autosize=1;strokeColor=none;fillColor=none;" parent="cJ1jjzPTOVkGGwvJorsa-25" vertex="1">
          <mxGeometry x="439.5" y="10.5" width="110" height="30" as="geometry" />
        </mxCell>
        <mxCell id="cJ1jjzPTOVkGGwvJorsa-28" style="edgeStyle=orthogonalEdgeStyle;rounded=0;orthogonalLoop=1;jettySize=auto;html=1;exitX=0;exitY=0.5;exitDx=0;exitDy=0;exitPerimeter=0;" parent="cJ1jjzPTOVkGGwvJorsa-25" source="cJ1jjzPTOVkGGwvJorsa-31" target="cJ1jjzPTOVkGGwvJorsa-26" edge="1">
          <mxGeometry relative="1" as="geometry" />
        </mxCell>
        <mxCell id="cJ1jjzPTOVkGGwvJorsa-29" value="" style="group" parent="cJ1jjzPTOVkGGwvJorsa-25" vertex="1" connectable="0">
          <mxGeometry x="650" y="7.5" width="136" height="115" as="geometry" />
        </mxCell>
        <mxCell id="cJ1jjzPTOVkGGwvJorsa-30" value="etc." style="shape=cylinder3;whiteSpace=wrap;html=1;boundedLbl=1;backgroundOutline=1;size=10;" parent="cJ1jjzPTOVkGGwvJorsa-29" vertex="1">
          <mxGeometry y="60" width="136" height="55" as="geometry" />
        </mxCell>
        <mxCell id="cJ1jjzPTOVkGGwvJorsa-31" value="PIMAN" style="shape=cylinder3;whiteSpace=wrap;html=1;boundedLbl=1;backgroundOutline=1;size=10;" parent="cJ1jjzPTOVkGGwvJorsa-29" vertex="1">
          <mxGeometry y="30" width="136" height="55" as="geometry" />
        </mxCell>
        <mxCell id="cJ1jjzPTOVkGGwvJorsa-32" value="TRC, IHRI" style="shape=cylinder3;whiteSpace=wrap;html=1;boundedLbl=1;backgroundOutline=1;size=10;" parent="cJ1jjzPTOVkGGwvJorsa-29" vertex="1">
          <mxGeometry width="136" height="50" as="geometry" />
        </mxCell>
        <mxCell id="cJ1jjzPTOVkGGwvJorsa-33" value="ติดตามสถานการณ์&lt;br&gt;การจ่ายยาฯ รายพื้นที่&lt;br&gt;เขตฯ จังหวัด หน่วยบริการ" style="shape=step;perimeter=stepPerimeter;whiteSpace=wrap;html=1;fixedSize=1;" parent="cJ1jjzPTOVkGGwvJorsa-25" vertex="1">
          <mxGeometry x="60" y="30" width="190" height="65" as="geometry" />
        </mxCell>
        <mxCell id="cJ1jjzPTOVkGGwvJorsa-34" value="" style="endArrow=classic;html=1;rounded=0;exitX=1;exitY=0.5;exitDx=0;exitDy=0;entryX=0.5;entryY=1;entryDx=0;entryDy=0;entryPerimeter=0;edgeStyle=orthogonalEdgeStyle;" parent="cJ1jjzPTOVkGGwvJorsa-2" source="cJ1jjzPTOVkGGwvJorsa-22" target="cJ1jjzPTOVkGGwvJorsa-7" edge="1">
          <mxGeometry width="50" height="50" relative="1" as="geometry">
            <mxPoint x="241" y="430" as="sourcePoint" />
            <mxPoint x="500.5" y="420" as="targetPoint" />
          </mxGeometry>
        </mxCell>
        <mxCell id="cJ1jjzPTOVkGGwvJorsa-35" style="edgeStyle=orthogonalEdgeStyle;rounded=0;orthogonalLoop=1;jettySize=auto;html=1;entryX=0.5;entryY=1;entryDx=0;entryDy=0;entryPerimeter=0;exitX=0;exitY=0.5;exitDx=0;exitDy=0;" parent="cJ1jjzPTOVkGGwvJorsa-2" source="cJ1jjzPTOVkGGwvJorsa-26" target="cJ1jjzPTOVkGGwvJorsa-7" edge="1">
          <mxGeometry relative="1" as="geometry" />
        </mxCell>
        <mxCell id="cJ1jjzPTOVkGGwvJorsa-36" value="" style="edgeStyle=orthogonalEdgeStyle;rounded=0;orthogonalLoop=1;jettySize=auto;html=1;exitX=1;exitY=0;exitDx=0;exitDy=47.5;exitPerimeter=0;" parent="cJ1jjzPTOVkGGwvJorsa-2" source="cJ1jjzPTOVkGGwvJorsa-7" target="cJ1jjzPTOVkGGwvJorsa-19" edge="1">
          <mxGeometry relative="1" as="geometry" />
        </mxCell>
        <mxCell id="cJ1jjzPTOVkGGwvJorsa-37" value="&amp;nbsp;ผ่านหน้าเว็บ&amp;nbsp;" style="edgeLabel;html=1;align=center;verticalAlign=middle;resizable=0;points=[];" parent="cJ1jjzPTOVkGGwvJorsa-36" vertex="1" connectable="0">
          <mxGeometry x="0.1261" relative="1" as="geometry">
            <mxPoint x="13" y="2" as="offset" />
          </mxGeometry>
        </mxCell>
        <mxCell id="cJ1jjzPTOVkGGwvJorsa-38" style="edgeStyle=orthogonalEdgeStyle;rounded=0;orthogonalLoop=1;jettySize=auto;html=1;entryX=0;entryY=0.5;entryDx=0;entryDy=0;entryPerimeter=0;exitX=0.5;exitY=0;exitDx=0;exitDy=0;" parent="cJ1jjzPTOVkGGwvJorsa-2" source="cJ1jjzPTOVkGGwvJorsa-23" target="cJ1jjzPTOVkGGwvJorsa-16" edge="1">
          <mxGeometry relative="1" as="geometry" />
        </mxCell>
        <mxCell id="cJ1jjzPTOVkGGwvJorsa-39" style="edgeStyle=orthogonalEdgeStyle;rounded=0;orthogonalLoop=1;jettySize=auto;html=1;entryX=0.5;entryY=0;entryDx=0;entryDy=0;exitX=1;exitY=0.5;exitDx=0;exitDy=0;exitPerimeter=0;" parent="cJ1jjzPTOVkGGwvJorsa-2" source="cJ1jjzPTOVkGGwvJorsa-16" target="cJ1jjzPTOVkGGwvJorsa-19" edge="1">
          <mxGeometry relative="1" as="geometry" />
        </mxCell>
        <mxCell id="cJ1jjzPTOVkGGwvJorsa-40" value="&amp;nbsp;NAP Report&amp;nbsp;" style="edgeLabel;html=1;align=center;verticalAlign=middle;resizable=0;points=[];" parent="cJ1jjzPTOVkGGwvJorsa-39" vertex="1" connectable="0">
          <mxGeometry x="-0.25" y="1" relative="1" as="geometry">
            <mxPoint x="-22" y="1" as="offset" />
          </mxGeometry>
        </mxCell>
        <mxCell id="cJ1jjzPTOVkGGwvJorsa-41" style="edgeStyle=orthogonalEdgeStyle;rounded=0;orthogonalLoop=1;jettySize=auto;html=1;entryX=0.855;entryY=1;entryDx=0;entryDy=-2.9;entryPerimeter=0;exitX=0.5;exitY=0;exitDx=0;exitDy=0;exitPerimeter=0;" parent="cJ1jjzPTOVkGGwvJorsa-2" source="cJ1jjzPTOVkGGwvJorsa-16" target="cJ1jjzPTOVkGGwvJorsa-7" edge="1">
          <mxGeometry relative="1" as="geometry">
            <Array as="points">
              <mxPoint x="416" y="260" />
            </Array>
          </mxGeometry>
        </mxCell>
        <mxCell id="cJ1jjzPTOVkGGwvJorsa-42" value="&amp;nbsp;? ขอข้อมูลเพื่อนำเข้ารายงานผล&amp;nbsp;" style="edgeLabel;html=1;align=center;verticalAlign=middle;resizable=0;points=[];" parent="cJ1jjzPTOVkGGwvJorsa-41" vertex="1" connectable="0">
          <mxGeometry x="0.0024" y="1" relative="1" as="geometry">
            <mxPoint as="offset" />
          </mxGeometry>
        </mxCell>
        <mxCell id="cJ1jjzPTOVkGGwvJorsa-43" style="edgeStyle=orthogonalEdgeStyle;rounded=0;orthogonalLoop=1;jettySize=auto;html=1;entryX=0.5;entryY=0;entryDx=0;entryDy=0;" parent="cJ1jjzPTOVkGGwvJorsa-2" source="cJ1jjzPTOVkGGwvJorsa-16" target="cJ1jjzPTOVkGGwvJorsa-24" edge="1">
          <mxGeometry relative="1" as="geometry" />
        </mxCell>
        <mxCell id="cJ1jjzPTOVkGGwvJorsa-44" style="edgeStyle=elbowEdgeStyle;rounded=0;orthogonalLoop=1;jettySize=auto;html=1;exitX=0.145;exitY=1;exitDx=0;exitDy=-2.9;exitPerimeter=0;shadow=0;noJump=0;comic=0;enumerate=0;orthogonal=0;flowAnimation=0;ignoreEdge=0;snapToPoint=0;fixDash=0;backgroundOutline=0;metaEdit=0;jumpStyle=arc;entryX=1;entryY=0.5;entryDx=0;entryDy=0;" parent="cJ1jjzPTOVkGGwvJorsa-2" source="cJ1jjzPTOVkGGwvJorsa-7" target="cJ1jjzPTOVkGGwvJorsa-33" edge="1">
          <mxGeometry relative="1" as="geometry">
            <Array as="points">
              <mxPoint x="320" y="440" />
            </Array>
            <mxPoint x="320" y="700" as="targetPoint" />
          </mxGeometry>
        </mxCell>
        <mxCell id="cJ1jjzPTOVkGGwvJorsa-45" value="มาตรการ:&amp;nbsp;&lt;span style=&quot;font-weight: normal;&quot;&gt;ลดจำนวนผู้ติดเชื้อเอชไอวีรายใหม่ให้เหลือปีละไม่เกิน 1,000 คน ในยุทธศาสตร์แห่งชาติว่าด้วยการยุติปัญหาเอดส์ พ.ศ. 2560-2573&lt;/span&gt;" style="text;html=1;strokeColor=none;fillColor=none;align=left;verticalAlign=top;whiteSpace=wrap;rounded=0;fontFamily=Tahoma;fontStyle=1;fontSize=18;" parent="cJ1jjzPTOVkGGwvJorsa-1" vertex="1">
          <mxGeometry x="40" y="70" width="1280" height="30" as="geometry" />
        </mxCell>
        <mxCell id="cJ1jjzPTOVkGGwvJorsa-46" value="กลุ่มงาน:&amp;nbsp;&lt;span style=&quot;font-weight: normal;&quot;&gt;กลุ่มพัฒนาและส่งเสริมเทคโนโลยีการป้องกัน&lt;/span&gt;" style="text;html=1;strokeColor=none;fillColor=none;align=left;verticalAlign=top;whiteSpace=wrap;rounded=0;fontFamily=Tahoma;fontStyle=1;fontSize=18;" parent="cJ1jjzPTOVkGGwvJorsa-1" vertex="1">
          <mxGeometry x="40" y="40" width="1280" height="30" as="geometry" />
        </mxCell>
        <mxCell id="cJ1jjzPTOVkGGwvJorsa-47" value="กิจกรรมที่ดำเนินการ:&amp;nbsp;" style="text;html=1;strokeColor=none;fillColor=none;align=left;verticalAlign=top;whiteSpace=wrap;rounded=0;fontFamily=Tahoma;fontStyle=1;fontSize=18;" parent="cJ1jjzPTOVkGGwvJorsa-1" vertex="1">
          <mxGeometry x="40" y="100" width="200" height="30" as="geometry" />
        </mxCell>
        <mxCell id="cJ1jjzPTOVkGGwvJorsa-48" value="1. Condoms&amp;nbsp;สนับสนุนถุงยางอนามัยและสารหล่อลื่น&lt;br&gt;2.&amp;nbsp;PrEP การจ่ายยา PrEP ในกลุ่มประชากร&lt;br&gt;3.&amp;nbsp;Index partner testing&amp;nbsp;การให้บริการชวนคู่ของผู้ติดเชื้อเอชไอวีมาตรวจหาการติดเชื้อเอชไอวี&lt;br&gt;4.&amp;nbsp;Youth กลุ่มเยาวชน&amp;nbsp;" style="text;html=1;strokeColor=none;fillColor=none;align=left;verticalAlign=top;whiteSpace=wrap;rounded=0;fontFamily=Tahoma;fontStyle=0;fontSize=18;" parent="cJ1jjzPTOVkGGwvJorsa-1" vertex="1">
          <mxGeometry x="240" y="100" width="920" height="90" as="geometry" />
        </mxCell>
        <mxCell id="cJ1jjzPTOVkGGwvJorsa-49" value="กระทำในระบบ" style="shape=step;perimeter=stepPerimeter;whiteSpace=wrap;html=1;fixedSize=1;" parent="cJ1jjzPTOVkGGwvJorsa-1" vertex="1">
          <mxGeometry x="40" y="1005" width="120" height="40" as="geometry" />
        </mxCell>
        <mxCell id="cJ1jjzPTOVkGGwvJorsa-50" value="กิจกรรม/การดำเนินการ" style="rounded=0;whiteSpace=wrap;html=1;" parent="cJ1jjzPTOVkGGwvJorsa-1" vertex="1">
          <mxGeometry x="180" y="1005" width="130" height="40" as="geometry" />
        </mxCell>
        <mxCell id="cJ1jjzPTOVkGGwvJorsa-51" value="ฐานข้อมูล" style="shape=cylinder3;whiteSpace=wrap;html=1;boundedLbl=1;backgroundOutline=1;size=10;" parent="cJ1jjzPTOVkGGwvJorsa-1" vertex="1">
          <mxGeometry x="340" y="1000" width="100" height="50" as="geometry" />
        </mxCell>
        <mxCell id="cJ1jjzPTOVkGGwvJorsa-52" value="&lt;b&gt;แหล่งที่มาของข้อมูล&lt;/b&gt;&lt;br&gt;1. หน่วยบริการบันทึกการจ่ายยา PrEP ให้กับผู้รับบริการ&amp;nbsp;&lt;br&gt;2. NGO ส่งข้อมูลการจ่ายยา&amp;nbsp;PrEP (จำนวนรวม?)&amp;nbsp;" style="text;html=1;strokeColor=none;fillColor=none;align=left;verticalAlign=top;whiteSpace=wrap;rounded=0;fontFamily=Tahoma;fontStyle=0;fontSize=18;" parent="cJ1jjzPTOVkGGwvJorsa-1" vertex="1">
          <mxGeometry x="480" y="950" width="440" height="90" as="geometry" />
        </mxCell>
        <mxCell id="cJ1jjzPTOVkGGwvJorsa-53" value="&lt;b&gt;แหล่งที่ไปของข้อมูล&lt;br&gt;&lt;/b&gt;1. กลุ่มป้องกันฯ ดึงข้อมูลจากในระบบเพื่อวางแผน สนับสนุน ติดตาม พัฒนาศักยภาพหน่วยบริการสุขภาพในการจัดบริการเพร็พ (PrEP)&lt;br&gt;2. ส่วนพื้นที่ ดึงข้อมูลสรุปผลเพื่อรายงานโครงการ&lt;br&gt;ออกมาตรการและถ่ายทอดไปยังหน่วยบริการผ่านหน้าเว็บ" style="text;html=1;strokeColor=none;fillColor=none;align=left;verticalAlign=top;whiteSpace=wrap;rounded=0;fontFamily=Tahoma;fontStyle=0;fontSize=18;" parent="cJ1jjzPTOVkGGwvJorsa-1" vertex="1">
          <mxGeometry x="940" y="950" width="510" height="130" as="geometry" />
        </mxCell>
        <mxCell id="cJ1jjzPTOVkGGwvJorsa-54" value="" style="endArrow=none;dashed=1;html=1;dashPattern=1 3;strokeWidth=2;rounded=0;" parent="cJ1jjzPTOVkGGwvJorsa-1" edge="1">
          <mxGeometry width="50" height="50" relative="1" as="geometry">
            <mxPoint x="927" y="1060" as="sourcePoint" />
            <mxPoint x="927" y="950" as="targetPoint" />
          </mxGeometry>
        </mxCell>
        <UserObject label="" link="data:page/id,prtHgNgQTEPvFCAcTncT" id="-V9-MbFD9puJCGfIvYkS-0">
          <mxCell style="html=1;strokeWidth=1;shadow=0;dashed=0;shape=mxgraph.ios7.misc.link;fillColor=#4CDA64;strokeColor=none;buttonText=;strokeColor2=#222222;fontColor=#222222;fontSize=8;verticalLabelPosition=bottom;verticalAlign=top;align=center;sketch=0;" parent="cJ1jjzPTOVkGGwvJorsa-1" vertex="1">
            <mxGeometry x="217" y="107" width="20" height="20" as="geometry" />
          </mxCell>
        </UserObject>
        <UserObject label="" link="data:page/id,7i-LERVDmYqNg7XQ0lNa" id="-V9-MbFD9puJCGfIvYkS-1">
          <mxCell style="html=1;strokeWidth=1;shadow=0;dashed=0;shape=mxgraph.ios7.misc.link;fillColor=#4CDA64;strokeColor=none;buttonText=;strokeColor2=#222222;fontColor=#222222;fontSize=8;verticalLabelPosition=bottom;verticalAlign=top;align=center;sketch=0;" parent="cJ1jjzPTOVkGGwvJorsa-1" vertex="1">
            <mxGeometry x="217" y="128" width="20" height="20" as="geometry" />
          </mxCell>
        </UserObject>
        <UserObject label="" link="data:page/id,HAeoyOpSyOvsjUOocYrg" id="-V9-MbFD9puJCGfIvYkS-2">
          <mxCell style="html=1;strokeWidth=1;shadow=0;dashed=0;shape=mxgraph.ios7.misc.link;fillColor=#4CDA64;strokeColor=none;buttonText=;strokeColor2=#222222;fontColor=#222222;fontSize=8;verticalLabelPosition=bottom;verticalAlign=top;align=center;sketch=0;" parent="cJ1jjzPTOVkGGwvJorsa-1" vertex="1">
            <mxGeometry x="217" y="150" width="20" height="20" as="geometry" />
          </mxCell>
        </UserObject>
        <UserObject label="" link="data:page/id,YElmQMGVYzcu0724_LoY" id="-V9-MbFD9puJCGfIvYkS-3">
          <mxCell style="html=1;strokeWidth=1;shadow=0;dashed=0;shape=mxgraph.ios7.misc.link;fillColor=#4CDA64;strokeColor=none;buttonText=;strokeColor2=#222222;fontColor=#222222;fontSize=8;verticalLabelPosition=bottom;verticalAlign=top;align=center;sketch=0;" parent="cJ1jjzPTOVkGGwvJorsa-1" vertex="1">
            <mxGeometry x="217" y="172" width="20" height="20" as="geometry" />
          </mxCell>
        </UserObject>
        <mxCell id="PrR7tlMusXNCugDWh7jb-0" value="? ดึงข้อมูลจาก web report" style="text;html=1;align=center;verticalAlign=middle;resizable=0;points=[];autosize=1;strokeColor=#b85450;fillColor=#f8cecc;" vertex="1" parent="cJ1jjzPTOVkGGwvJorsa-1">
          <mxGeometry x="1170" y="80" width="160" height="30" as="geometry" />
        </mxCell>
      </root>
    </mxGraphModel>
  </diagram>
  <diagram name="V1of Condoms" id="wkVv8n4ttgnaVShfkALx">
    <mxGraphModel dx="1426" dy="785" grid="1" gridSize="10" guides="1" tooltips="1" connect="1" arrows="1" fold="1" page="1" pageScale="1" pageWidth="827" pageHeight="1169" math="0" shadow="0">
      <root>
        <mxCell id="c4IW3a5Vpmfd5VbpGqLc-0" />
        <mxCell id="c4IW3a5Vpmfd5VbpGqLc-1" parent="c4IW3a5Vpmfd5VbpGqLc-0" />
        <mxCell id="c4IW3a5Vpmfd5VbpGqLc-2" value="Condom" style="swimlane;html=1;childLayout=stackLayout;resizeParent=1;resizeParentMax=0;horizontal=0;startSize=20;horizontalStack=0;fontFamily=Tahoma;strokeColor=#666666;" vertex="1" parent="c4IW3a5Vpmfd5VbpGqLc-1">
          <mxGeometry x="40" y="200" width="1340" height="760" as="geometry" />
        </mxCell>
        <mxCell id="c4IW3a5Vpmfd5VbpGqLc-3" value="กองทุน" style="swimlane;html=1;startSize=20;horizontal=0;fontFamily=Tahoma;strokeColor=#666666;" vertex="1" parent="c4IW3a5Vpmfd5VbpGqLc-2">
          <mxGeometry x="20" width="1320" height="120" as="geometry" />
        </mxCell>
        <mxCell id="c4IW3a5Vpmfd5VbpGqLc-4" style="edgeStyle=orthogonalEdgeStyle;rounded=0;orthogonalLoop=1;jettySize=auto;html=1;" edge="1" parent="c4IW3a5Vpmfd5VbpGqLc-3" source="c4IW3a5Vpmfd5VbpGqLc-5" target="c4IW3a5Vpmfd5VbpGqLc-7">
          <mxGeometry relative="1" as="geometry" />
        </mxCell>
        <mxCell id="c4IW3a5Vpmfd5VbpGqLc-5" value="Start" style="rounded=1;whiteSpace=wrap;html=1;arcSize=50;" vertex="1" parent="c4IW3a5Vpmfd5VbpGqLc-3">
          <mxGeometry x="40" y="40" width="90" height="40" as="geometry" />
        </mxCell>
        <mxCell id="c4IW3a5Vpmfd5VbpGqLc-6" style="edgeStyle=orthogonalEdgeStyle;rounded=0;orthogonalLoop=1;jettySize=auto;html=1;exitX=0.5;exitY=1;exitDx=0;exitDy=0;" edge="1" parent="c4IW3a5Vpmfd5VbpGqLc-3" source="c4IW3a5Vpmfd5VbpGqLc-5" target="c4IW3a5Vpmfd5VbpGqLc-5">
          <mxGeometry relative="1" as="geometry" />
        </mxCell>
        <mxCell id="c4IW3a5Vpmfd5VbpGqLc-7" value="ให้งบประมาณสนับสนุนการจัดซื้อถุงยางและสารหล่อลื่น" style="rounded=0;whiteSpace=wrap;html=1;" vertex="1" parent="c4IW3a5Vpmfd5VbpGqLc-3">
          <mxGeometry x="160" y="30" width="160" height="60" as="geometry" />
        </mxCell>
        <mxCell id="c4IW3a5Vpmfd5VbpGqLc-8" value="? งบจัดซื้อมาจากไหน" style="text;html=1;align=center;verticalAlign=middle;resizable=0;points=[];autosize=1;strokeColor=none;fillColor=none;" vertex="1" parent="c4IW3a5Vpmfd5VbpGqLc-3">
          <mxGeometry x="330" y="60" width="130" height="30" as="geometry" />
        </mxCell>
        <mxCell id="c4IW3a5Vpmfd5VbpGqLc-9" value="? รายงานผลการเบิกจ่าย&lt;br style=&quot;border-color: var(--border-color);&quot;&gt;ถุงยางอนามัยและสารหล่อลื่น" style="rounded=1;whiteSpace=wrap;html=1;arcSize=50;" vertex="1" parent="c4IW3a5Vpmfd5VbpGqLc-3">
          <mxGeometry x="1040" y="40" width="200" height="40" as="geometry" />
        </mxCell>
        <mxCell id="c4IW3a5Vpmfd5VbpGqLc-10" value="ก. ป้องกัน" style="swimlane;html=1;startSize=20;horizontal=0;fontFamily=Tahoma;strokeColor=#666666;" vertex="1" parent="c4IW3a5Vpmfd5VbpGqLc-2">
          <mxGeometry x="20" y="120" width="1320" height="170" as="geometry" />
        </mxCell>
        <mxCell id="c4IW3a5Vpmfd5VbpGqLc-11" style="edgeStyle=orthogonalEdgeStyle;rounded=0;orthogonalLoop=1;jettySize=auto;html=1;exitX=0.5;exitY=1;exitDx=0;exitDy=0;" edge="1" parent="c4IW3a5Vpmfd5VbpGqLc-10">
          <mxGeometry relative="1" as="geometry">
            <mxPoint x="85" y="80" as="sourcePoint" />
            <mxPoint x="85" y="80" as="targetPoint" />
          </mxGeometry>
        </mxCell>
        <mxCell id="c4IW3a5Vpmfd5VbpGqLc-12" style="edgeStyle=orthogonalEdgeStyle;rounded=0;orthogonalLoop=1;jettySize=auto;html=1;entryX=0;entryY=0.5;entryDx=0;entryDy=0;exitX=1;exitY=0.5;exitDx=0;exitDy=0;" edge="1" parent="c4IW3a5Vpmfd5VbpGqLc-10" source="c4IW3a5Vpmfd5VbpGqLc-19" target="c4IW3a5Vpmfd5VbpGqLc-13">
          <mxGeometry relative="1" as="geometry">
            <mxPoint x="940" y="95" as="sourcePoint" />
          </mxGeometry>
        </mxCell>
        <mxCell id="c4IW3a5Vpmfd5VbpGqLc-13" value="จัดสรรถุงยางฯ ไปตาม&lt;br&gt;หน่วยบริการที่ร้องขอ" style="rounded=0;whiteSpace=wrap;html=1;" vertex="1" parent="c4IW3a5Vpmfd5VbpGqLc-10">
          <mxGeometry x="980" y="85" width="160" height="60" as="geometry" />
        </mxCell>
        <mxCell id="c4IW3a5Vpmfd5VbpGqLc-14" style="edgeStyle=orthogonalEdgeStyle;rounded=0;orthogonalLoop=1;jettySize=auto;html=1;entryX=0;entryY=0.5;entryDx=0;entryDy=0;" edge="1" parent="c4IW3a5Vpmfd5VbpGqLc-10" source="c4IW3a5Vpmfd5VbpGqLc-16" target="c4IW3a5Vpmfd5VbpGqLc-19">
          <mxGeometry relative="1" as="geometry">
            <mxPoint x="780" y="95" as="targetPoint" />
          </mxGeometry>
        </mxCell>
        <mxCell id="c4IW3a5Vpmfd5VbpGqLc-15" style="edgeStyle=orthogonalEdgeStyle;rounded=0;orthogonalLoop=1;jettySize=auto;html=1;exitX=0.5;exitY=0;exitDx=0;exitDy=0;exitPerimeter=0;" edge="1" parent="c4IW3a5Vpmfd5VbpGqLc-10" source="c4IW3a5Vpmfd5VbpGqLc-16" target="c4IW3a5Vpmfd5VbpGqLc-20">
          <mxGeometry relative="1" as="geometry">
            <mxPoint x="510" y="110" as="sourcePoint" />
            <mxPoint x="720" y="50" as="targetPoint" />
          </mxGeometry>
        </mxCell>
        <mxCell id="c4IW3a5Vpmfd5VbpGqLc-16" value="condom.ddc" style="shape=cylinder3;whiteSpace=wrap;html=1;boundedLbl=1;backgroundOutline=1;size=10;" vertex="1" parent="c4IW3a5Vpmfd5VbpGqLc-10">
          <mxGeometry x="371" y="80" width="136" height="70" as="geometry" />
        </mxCell>
        <mxCell id="c4IW3a5Vpmfd5VbpGqLc-17" style="edgeStyle=orthogonalEdgeStyle;rounded=0;orthogonalLoop=1;jettySize=auto;html=1;exitX=1;exitY=0.5;exitDx=0;exitDy=0;entryX=0;entryY=0.5;entryDx=0;entryDy=0;entryPerimeter=0;" edge="1" parent="c4IW3a5Vpmfd5VbpGqLc-10" source="c4IW3a5Vpmfd5VbpGqLc-18" target="c4IW3a5Vpmfd5VbpGqLc-16">
          <mxGeometry relative="1" as="geometry">
            <mxPoint x="320" y="95" as="sourcePoint" />
          </mxGeometry>
        </mxCell>
        <mxCell id="c4IW3a5Vpmfd5VbpGqLc-18" value="&amp;nbsp;สร้างระบบการเบิกจ่ายฯ&lt;br&gt;+สร้าง Stock ในระบบ" style="shape=step;perimeter=stepPerimeter;whiteSpace=wrap;html=1;fixedSize=1;" vertex="1" parent="c4IW3a5Vpmfd5VbpGqLc-10">
          <mxGeometry x="160" y="82.5" width="160" height="65" as="geometry" />
        </mxCell>
        <mxCell id="c4IW3a5Vpmfd5VbpGqLc-19" value="เรียกดูข้อมูลและพิจารณา&lt;br style=&quot;border-color: var(--border-color);&quot;&gt;การขอสนับสนุนฯ จากหน่วยบริการ" style="shape=step;perimeter=stepPerimeter;whiteSpace=wrap;html=1;fixedSize=1;" vertex="1" parent="c4IW3a5Vpmfd5VbpGqLc-10">
          <mxGeometry x="728" y="90" width="208" height="50" as="geometry" />
        </mxCell>
        <mxCell id="c4IW3a5Vpmfd5VbpGqLc-20" value="สรุปผลการรายงานผลการเบิกจ่าย&lt;br&gt;ถุงยางอนามัยและสารหล่อลื่น" style="shape=step;perimeter=stepPerimeter;whiteSpace=wrap;html=1;fixedSize=1;" vertex="1" parent="c4IW3a5Vpmfd5VbpGqLc-10">
          <mxGeometry x="728" y="25" width="212" height="55" as="geometry" />
        </mxCell>
        <mxCell id="c4IW3a5Vpmfd5VbpGqLc-21" value="NAP สปสช." style="swimlane;html=1;startSize=20;horizontal=0;fontFamily=Tahoma;strokeColor=#666666;" vertex="1" parent="c4IW3a5Vpmfd5VbpGqLc-2">
          <mxGeometry x="20" y="290" width="1320" height="120" as="geometry">
            <mxRectangle x="20" y="240" width="610" height="30" as="alternateBounds" />
          </mxGeometry>
        </mxCell>
        <mxCell id="c4IW3a5Vpmfd5VbpGqLc-22" value="NAP+" style="shape=cylinder3;whiteSpace=wrap;html=1;boundedLbl=1;backgroundOutline=1;size=10;" vertex="1" parent="c4IW3a5Vpmfd5VbpGqLc-21">
          <mxGeometry x="490" y="25" width="136" height="70" as="geometry" />
        </mxCell>
        <mxCell id="c4IW3a5Vpmfd5VbpGqLc-23" value="ชุดสิทธิประโยชน์&lt;br&gt;การขอชดเชยถุงยางอนามัย" style="rounded=0;whiteSpace=wrap;html=1;" vertex="1" parent="c4IW3a5Vpmfd5VbpGqLc-21">
          <mxGeometry x="190" y="30" width="160" height="60" as="geometry" />
        </mxCell>
        <mxCell id="c4IW3a5Vpmfd5VbpGqLc-24" style="edgeStyle=orthogonalEdgeStyle;rounded=0;orthogonalLoop=1;jettySize=auto;html=1;entryX=0;entryY=0.5;entryDx=0;entryDy=0;shadow=0;noJump=0;comic=0;enumerate=0;orthogonal=0;flowAnimation=0;ignoreEdge=0;snapToPoint=0;fixDash=0;backgroundOutline=0;metaEdit=0;jumpStyle=arc;exitX=1;exitY=0.5;exitDx=0;exitDy=0;entryPerimeter=0;" edge="1" parent="c4IW3a5Vpmfd5VbpGqLc-21" source="c4IW3a5Vpmfd5VbpGqLc-23" target="c4IW3a5Vpmfd5VbpGqLc-22">
          <mxGeometry relative="1" as="geometry">
            <mxPoint x="360" y="60" as="sourcePoint" />
            <mxPoint x="354" y="421" as="targetPoint" />
          </mxGeometry>
        </mxCell>
        <mxCell id="c4IW3a5Vpmfd5VbpGqLc-25" value="สคร./สสจ." style="swimlane;html=1;startSize=20;horizontal=0;fontFamily=Tahoma;strokeColor=#666666;" vertex="1" parent="c4IW3a5Vpmfd5VbpGqLc-2">
          <mxGeometry x="20" y="410" width="1320" height="120" as="geometry" />
        </mxCell>
        <mxCell id="c4IW3a5Vpmfd5VbpGqLc-26" value="ติดตามสถานการณ์&lt;br&gt;การเบิกจ่ายถุงยางฯ รายพื้นที่ ?" style="shape=step;perimeter=stepPerimeter;whiteSpace=wrap;html=1;fixedSize=1;" vertex="1" parent="c4IW3a5Vpmfd5VbpGqLc-25">
          <mxGeometry x="601" y="27.5" width="200" height="65" as="geometry" />
        </mxCell>
        <mxCell id="c4IW3a5Vpmfd5VbpGqLc-27" value="ขอเบิกสนับสนุนถุงยางและสารหล่อลื่น+&lt;br&gt;รายงานยอดการใช้งานปีปัจจุบัน ยอดคงเหลือ" style="shape=step;perimeter=stepPerimeter;whiteSpace=wrap;html=1;fixedSize=1;" vertex="1" parent="c4IW3a5Vpmfd5VbpGqLc-25">
          <mxGeometry x="60" y="30" width="249" height="60" as="geometry" />
        </mxCell>
        <mxCell id="c4IW3a5Vpmfd5VbpGqLc-28" value="ดูได้จากในระบบ?" style="text;html=1;align=center;verticalAlign=middle;resizable=0;points=[];autosize=1;strokeColor=none;fillColor=none;" vertex="1" parent="c4IW3a5Vpmfd5VbpGqLc-25">
          <mxGeometry x="640" y="90" width="110" height="30" as="geometry" />
        </mxCell>
        <mxCell id="c4IW3a5Vpmfd5VbpGqLc-29" value="หน่วยบริการ" style="swimlane;html=1;startSize=20;horizontal=0;fontFamily=Tahoma;strokeColor=#666666;" vertex="1" parent="c4IW3a5Vpmfd5VbpGqLc-2">
          <mxGeometry x="20" y="530" width="1320" height="120" as="geometry" />
        </mxCell>
        <mxCell id="c4IW3a5Vpmfd5VbpGqLc-30" value="รับถุงยางฯ เพื่อไปจัดบริการถุงยางอนามัย&lt;br&gt;และสารหล่อลื่นให้กับกลุ่มเป้าหมาย" style="rounded=0;whiteSpace=wrap;html=1;" vertex="1" parent="c4IW3a5Vpmfd5VbpGqLc-29">
          <mxGeometry x="950" y="30" width="219" height="60" as="geometry" />
        </mxCell>
        <mxCell id="c4IW3a5Vpmfd5VbpGqLc-31" value="บันทึกการจ่ายถุงยางฯ&lt;br style=&quot;border-color: var(--border-color);&quot;&gt;ในระบบ NAP" style="shape=step;perimeter=stepPerimeter;whiteSpace=wrap;html=1;fixedSize=1;" vertex="1" parent="c4IW3a5Vpmfd5VbpGqLc-29">
          <mxGeometry x="475" y="30" width="166" height="60" as="geometry" />
        </mxCell>
        <mxCell id="c4IW3a5Vpmfd5VbpGqLc-32" value="ขอเบิกสนับสนุนถุงยางและสารหล่อลื่น+&lt;br style=&quot;border-color: var(--border-color);&quot;&gt;รายงานยอดการใช้งานปีปัจจุบัน ยอดคงเหลือ" style="shape=step;perimeter=stepPerimeter;whiteSpace=wrap;html=1;fixedSize=1;" vertex="1" parent="c4IW3a5Vpmfd5VbpGqLc-29">
          <mxGeometry x="60" y="30" width="249" height="60" as="geometry" />
        </mxCell>
        <mxCell id="c4IW3a5Vpmfd5VbpGqLc-33" style="edgeStyle=orthogonalEdgeStyle;rounded=0;orthogonalLoop=1;jettySize=auto;html=1;entryX=0.5;entryY=1;entryDx=0;entryDy=0;entryPerimeter=0;exitX=1;exitY=0.5;exitDx=0;exitDy=0;jumpStyle=arc;" edge="1" parent="c4IW3a5Vpmfd5VbpGqLc-2" source="c4IW3a5Vpmfd5VbpGqLc-45" target="c4IW3a5Vpmfd5VbpGqLc-16">
          <mxGeometry relative="1" as="geometry">
            <mxPoint x="340" y="660" as="sourcePoint" />
          </mxGeometry>
        </mxCell>
        <mxCell id="c4IW3a5Vpmfd5VbpGqLc-34" style="edgeStyle=orthogonalEdgeStyle;rounded=0;orthogonalLoop=1;jettySize=auto;html=1;entryX=0.5;entryY=1;entryDx=0;entryDy=0;entryPerimeter=0;exitX=1;exitY=0.5;exitDx=0;exitDy=0;jumpStyle=arc;" edge="1" parent="c4IW3a5Vpmfd5VbpGqLc-2" source="c4IW3a5Vpmfd5VbpGqLc-32" target="c4IW3a5Vpmfd5VbpGqLc-16">
          <mxGeometry relative="1" as="geometry">
            <mxPoint x="340" y="530" as="sourcePoint" />
          </mxGeometry>
        </mxCell>
        <mxCell id="c4IW3a5Vpmfd5VbpGqLc-35" style="edgeStyle=orthogonalEdgeStyle;rounded=0;orthogonalLoop=1;jettySize=auto;html=1;entryX=0.5;entryY=0;entryDx=0;entryDy=0;" edge="1" parent="c4IW3a5Vpmfd5VbpGqLc-2" source="c4IW3a5Vpmfd5VbpGqLc-7" target="c4IW3a5Vpmfd5VbpGqLc-18">
          <mxGeometry relative="1" as="geometry">
            <mxPoint x="260" y="150" as="targetPoint" />
          </mxGeometry>
        </mxCell>
        <mxCell id="c4IW3a5Vpmfd5VbpGqLc-36" style="edgeStyle=orthogonalEdgeStyle;rounded=0;orthogonalLoop=1;jettySize=auto;html=1;entryX=0.5;entryY=1;entryDx=0;entryDy=0;entryPerimeter=0;exitX=0.5;exitY=0;exitDx=0;exitDy=0;" edge="1" parent="c4IW3a5Vpmfd5VbpGqLc-2" source="c4IW3a5Vpmfd5VbpGqLc-31" target="c4IW3a5Vpmfd5VbpGqLc-22">
          <mxGeometry relative="1" as="geometry">
            <mxPoint x="577" y="510" as="sourcePoint" />
          </mxGeometry>
        </mxCell>
        <mxCell id="c4IW3a5Vpmfd5VbpGqLc-37" style="edgeStyle=orthogonalEdgeStyle;rounded=0;orthogonalLoop=1;jettySize=auto;html=1;exitX=0.5;exitY=1;exitDx=0;exitDy=0;" edge="1" parent="c4IW3a5Vpmfd5VbpGqLc-2" source="c4IW3a5Vpmfd5VbpGqLc-13" target="c4IW3a5Vpmfd5VbpGqLc-30">
          <mxGeometry relative="1" as="geometry" />
        </mxCell>
        <mxCell id="c4IW3a5Vpmfd5VbpGqLc-38" style="edgeStyle=orthogonalEdgeStyle;rounded=0;orthogonalLoop=1;jettySize=auto;html=1;exitX=1;exitY=0.5;exitDx=0;exitDy=0;" edge="1" parent="c4IW3a5Vpmfd5VbpGqLc-2" source="c4IW3a5Vpmfd5VbpGqLc-13" target="c4IW3a5Vpmfd5VbpGqLc-44">
          <mxGeometry relative="1" as="geometry" />
        </mxCell>
        <mxCell id="c4IW3a5Vpmfd5VbpGqLc-39" style="edgeStyle=orthogonalEdgeStyle;rounded=0;orthogonalLoop=1;jettySize=auto;html=1;entryX=0.5;entryY=0;entryDx=0;entryDy=0;" edge="1" parent="c4IW3a5Vpmfd5VbpGqLc-2" source="c4IW3a5Vpmfd5VbpGqLc-16" target="c4IW3a5Vpmfd5VbpGqLc-26">
          <mxGeometry relative="1" as="geometry">
            <mxPoint x="712" y="390" as="targetPoint" />
          </mxGeometry>
        </mxCell>
        <mxCell id="c4IW3a5Vpmfd5VbpGqLc-40" value="&amp;nbsp;ผ่านหน้าเว็บ&amp;nbsp;" style="edgeLabel;html=1;align=center;verticalAlign=middle;resizable=0;points=[];" vertex="1" connectable="0" parent="c4IW3a5Vpmfd5VbpGqLc-39">
          <mxGeometry x="-0.4413" relative="1" as="geometry">
            <mxPoint as="offset" />
          </mxGeometry>
        </mxCell>
        <mxCell id="c4IW3a5Vpmfd5VbpGqLc-41" style="edgeStyle=orthogonalEdgeStyle;rounded=0;orthogonalLoop=1;jettySize=auto;html=1;exitX=1;exitY=0.5;exitDx=0;exitDy=0;exitPerimeter=0;entryX=0.25;entryY=0;entryDx=0;entryDy=0;" edge="1" parent="c4IW3a5Vpmfd5VbpGqLc-2" source="c4IW3a5Vpmfd5VbpGqLc-22" target="c4IW3a5Vpmfd5VbpGqLc-26">
          <mxGeometry relative="1" as="geometry">
            <mxPoint x="721" y="300" as="targetPoint" />
          </mxGeometry>
        </mxCell>
        <mxCell id="c4IW3a5Vpmfd5VbpGqLc-42" value="&amp;nbsp;NAP Report&amp;nbsp;" style="edgeLabel;html=1;align=center;verticalAlign=middle;resizable=0;points=[];" vertex="1" connectable="0" parent="c4IW3a5Vpmfd5VbpGqLc-41">
          <mxGeometry x="-0.1365" y="-2" relative="1" as="geometry">
            <mxPoint x="1" y="16" as="offset" />
          </mxGeometry>
        </mxCell>
        <mxCell id="c4IW3a5Vpmfd5VbpGqLc-43" value="NGO ภายนอก" style="swimlane;html=1;startSize=20;horizontal=0;fontFamily=Tahoma;strokeColor=#666666;" vertex="1" parent="c4IW3a5Vpmfd5VbpGqLc-2">
          <mxGeometry x="20" y="650" width="1320" height="110" as="geometry" />
        </mxCell>
        <mxCell id="c4IW3a5Vpmfd5VbpGqLc-44" value="รับถุงยางฯ เพื่อไปจัดบริการถุงยางอนามัย&lt;br style=&quot;border-color: var(--border-color);&quot;&gt;และสารหล่อลื่นให้กับกลุ่มเป้าหมาย" style="rounded=0;whiteSpace=wrap;html=1;" vertex="1" parent="c4IW3a5Vpmfd5VbpGqLc-43">
          <mxGeometry x="1079" y="25" width="220" height="60" as="geometry" />
        </mxCell>
        <mxCell id="c4IW3a5Vpmfd5VbpGqLc-45" value="ขอเบิกสนับสนุนถุงยางและสารหล่อลื่น+&lt;br style=&quot;border-color: var(--border-color);&quot;&gt;รายงานยอดการใช้งานปีปัจจุบัน ยอดคงเหลือ" style="shape=step;perimeter=stepPerimeter;whiteSpace=wrap;html=1;fixedSize=1;" vertex="1" parent="c4IW3a5Vpmfd5VbpGqLc-43">
          <mxGeometry x="60" y="30" width="249" height="60" as="geometry" />
        </mxCell>
        <mxCell id="c4IW3a5Vpmfd5VbpGqLc-46" style="edgeStyle=orthogonalEdgeStyle;rounded=0;orthogonalLoop=1;jettySize=auto;html=1;entryX=0.5;entryY=1;entryDx=0;entryDy=0;entryPerimeter=0;jumpStyle=arc;" edge="1" parent="c4IW3a5Vpmfd5VbpGqLc-2" source="c4IW3a5Vpmfd5VbpGqLc-27" target="c4IW3a5Vpmfd5VbpGqLc-16">
          <mxGeometry relative="1" as="geometry" />
        </mxCell>
        <mxCell id="c4IW3a5Vpmfd5VbpGqLc-47" style="edgeStyle=orthogonalEdgeStyle;rounded=0;orthogonalLoop=1;jettySize=auto;html=1;entryX=0;entryY=0.5;entryDx=0;entryDy=0;dashed=1;" edge="1" parent="c4IW3a5Vpmfd5VbpGqLc-2" source="c4IW3a5Vpmfd5VbpGqLc-20" target="c4IW3a5Vpmfd5VbpGqLc-9">
          <mxGeometry relative="1" as="geometry" />
        </mxCell>
        <mxCell id="c4IW3a5Vpmfd5VbpGqLc-48" value="มาตรการ:&amp;nbsp;&lt;span style=&quot;font-weight: normal;&quot;&gt;ลดจำนวนผู้ติดเชื้อเอชไอวีรายใหม่ให้เหลือปีละไม่เกิน 1,000 คน ในยุทธศาสตร์แห่งชาติว่าด้วยการยุติปัญหาเอดส์ พ.ศ. 2560-2573&lt;/span&gt;" style="text;html=1;strokeColor=none;fillColor=none;align=left;verticalAlign=top;whiteSpace=wrap;rounded=0;fontFamily=Tahoma;fontStyle=1;fontSize=18;" vertex="1" parent="c4IW3a5Vpmfd5VbpGqLc-1">
          <mxGeometry x="40" y="70" width="1280" height="30" as="geometry" />
        </mxCell>
        <mxCell id="c4IW3a5Vpmfd5VbpGqLc-49" value="กลุ่มงาน:&amp;nbsp;&lt;span style=&quot;font-weight: normal;&quot;&gt;กลุ่มพัฒนาและส่งเสริมเทคโนโลยีการป้องกัน&lt;/span&gt;" style="text;html=1;strokeColor=none;fillColor=none;align=left;verticalAlign=top;whiteSpace=wrap;rounded=0;fontFamily=Tahoma;fontStyle=1;fontSize=18;" vertex="1" parent="c4IW3a5Vpmfd5VbpGqLc-1">
          <mxGeometry x="40" y="40" width="1280" height="30" as="geometry" />
        </mxCell>
        <mxCell id="c4IW3a5Vpmfd5VbpGqLc-50" value="กิจกรรมที่ดำเนินการ:&amp;nbsp;" style="text;html=1;strokeColor=none;fillColor=none;align=left;verticalAlign=top;whiteSpace=wrap;rounded=0;fontFamily=Tahoma;fontStyle=1;fontSize=18;" vertex="1" parent="c4IW3a5Vpmfd5VbpGqLc-1">
          <mxGeometry x="40" y="100" width="200" height="30" as="geometry" />
        </mxCell>
        <UserObject label="1. Condoms&amp;nbsp;สนับสนุนถุงยางอนามัยและสารหล่อลื่น&lt;br&gt;2.&amp;nbsp;PrEP การจ่ายยา PrEP ในกลุ่มประชากร&lt;br&gt;3.&amp;nbsp;Index partner testing&amp;nbsp;การให้บริการชวนคู่ของผู้ติดเชื้อเอชไอวีมาตรวจหาการติดเชื้อเอชไอวี&lt;br&gt;4.&amp;nbsp;Youth กลุ่มเยาวชน&amp;nbsp;" id="c4IW3a5Vpmfd5VbpGqLc-51">
          <mxCell style="text;html=1;strokeColor=none;fillColor=none;align=left;verticalAlign=top;whiteSpace=wrap;rounded=0;fontFamily=Tahoma;fontStyle=0;fontSize=18;" vertex="1" parent="c4IW3a5Vpmfd5VbpGqLc-1">
            <mxGeometry x="240" y="100" width="920" height="90" as="geometry" />
          </mxCell>
        </UserObject>
        <mxCell id="c4IW3a5Vpmfd5VbpGqLc-52" value="กระทำในระบบ" style="shape=step;perimeter=stepPerimeter;whiteSpace=wrap;html=1;fixedSize=1;" vertex="1" parent="c4IW3a5Vpmfd5VbpGqLc-1">
          <mxGeometry x="40" y="1005" width="120" height="40" as="geometry" />
        </mxCell>
        <mxCell id="c4IW3a5Vpmfd5VbpGqLc-53" value="กิจกรรม/การดำเนินการ" style="rounded=0;whiteSpace=wrap;html=1;" vertex="1" parent="c4IW3a5Vpmfd5VbpGqLc-1">
          <mxGeometry x="180" y="1005" width="130" height="40" as="geometry" />
        </mxCell>
        <mxCell id="c4IW3a5Vpmfd5VbpGqLc-54" value="ฐานข้อมูล" style="shape=cylinder3;whiteSpace=wrap;html=1;boundedLbl=1;backgroundOutline=1;size=10;" vertex="1" parent="c4IW3a5Vpmfd5VbpGqLc-1">
          <mxGeometry x="340" y="1000" width="100" height="50" as="geometry" />
        </mxCell>
        <mxCell id="c4IW3a5Vpmfd5VbpGqLc-55" value="&lt;b&gt;แหล่งที่มาของข้อมูล&lt;/b&gt;&lt;br&gt;1. หน่วยบริการ/สคร./NGO บันทึกขอสนับสนุนฯ" style="text;html=1;strokeColor=none;fillColor=none;align=left;verticalAlign=top;whiteSpace=wrap;rounded=0;fontFamily=Tahoma;fontStyle=0;fontSize=18;" vertex="1" parent="c4IW3a5Vpmfd5VbpGqLc-1">
          <mxGeometry x="480" y="980" width="440" height="90" as="geometry" />
        </mxCell>
        <mxCell id="c4IW3a5Vpmfd5VbpGqLc-56" value="&lt;b&gt;แหล่งที่ไปของข้อมูล&lt;br&gt;&lt;/b&gt;1. กลุ่มป้องกันฯ ดึงข้อมูลจากในระบบเพื่อพิจารณาจัดสรร&lt;br&gt;2. กลุ่มป้องกันฯ&amp;nbsp;ดึงข้อมูลสรุปผลเพื่อรายงานโครงการ&lt;br&gt;3. ส่วนพื้นที่ ติดตาม ตรวจสอบยอดการสนับสนุนผ่านหน้าเว็บ" style="text;html=1;strokeColor=none;fillColor=none;align=left;verticalAlign=top;whiteSpace=wrap;rounded=0;fontFamily=Tahoma;fontStyle=0;fontSize=18;" vertex="1" parent="c4IW3a5Vpmfd5VbpGqLc-1">
          <mxGeometry x="940" y="980" width="440" height="90" as="geometry" />
        </mxCell>
        <mxCell id="c4IW3a5Vpmfd5VbpGqLc-57" value="" style="endArrow=none;dashed=1;html=1;dashPattern=1 3;strokeWidth=2;rounded=0;" edge="1" parent="c4IW3a5Vpmfd5VbpGqLc-1">
          <mxGeometry width="50" height="50" relative="1" as="geometry">
            <mxPoint x="927" y="1090" as="sourcePoint" />
            <mxPoint x="927" y="980" as="targetPoint" />
          </mxGeometry>
        </mxCell>
        <UserObject label="" link="data:page/id,prtHgNgQTEPvFCAcTncT" id="c4IW3a5Vpmfd5VbpGqLc-58">
          <mxCell style="html=1;strokeWidth=1;shadow=0;dashed=0;shape=mxgraph.ios7.misc.link;fillColor=#4CDA64;strokeColor=none;buttonText=;strokeColor2=#222222;fontColor=#222222;fontSize=8;verticalLabelPosition=bottom;verticalAlign=top;align=center;sketch=0;" vertex="1" parent="c4IW3a5Vpmfd5VbpGqLc-1">
            <mxGeometry x="217" y="107" width="20" height="20" as="geometry" />
          </mxCell>
        </UserObject>
        <UserObject label="" link="data:page/id,7i-LERVDmYqNg7XQ0lNa" id="c4IW3a5Vpmfd5VbpGqLc-59">
          <mxCell style="html=1;strokeWidth=1;shadow=0;dashed=0;shape=mxgraph.ios7.misc.link;fillColor=#4CDA64;strokeColor=none;buttonText=;strokeColor2=#222222;fontColor=#222222;fontSize=8;verticalLabelPosition=bottom;verticalAlign=top;align=center;sketch=0;" vertex="1" parent="c4IW3a5Vpmfd5VbpGqLc-1">
            <mxGeometry x="217" y="128" width="20" height="20" as="geometry" />
          </mxCell>
        </UserObject>
        <UserObject label="" link="data:page/id,HAeoyOpSyOvsjUOocYrg" id="c4IW3a5Vpmfd5VbpGqLc-60">
          <mxCell style="html=1;strokeWidth=1;shadow=0;dashed=0;shape=mxgraph.ios7.misc.link;fillColor=#4CDA64;strokeColor=none;buttonText=;strokeColor2=#222222;fontColor=#222222;fontSize=8;verticalLabelPosition=bottom;verticalAlign=top;align=center;sketch=0;" vertex="1" parent="c4IW3a5Vpmfd5VbpGqLc-1">
            <mxGeometry x="217" y="150" width="20" height="20" as="geometry" />
          </mxCell>
        </UserObject>
        <UserObject label="" link="data:page/id,YElmQMGVYzcu0724_LoY" id="c4IW3a5Vpmfd5VbpGqLc-61">
          <mxCell style="html=1;strokeWidth=1;shadow=0;dashed=0;shape=mxgraph.ios7.misc.link;fillColor=#4CDA64;strokeColor=none;buttonText=;strokeColor2=#222222;fontColor=#222222;fontSize=8;verticalLabelPosition=bottom;verticalAlign=top;align=center;sketch=0;" vertex="1" parent="c4IW3a5Vpmfd5VbpGqLc-1">
            <mxGeometry x="217" y="172" width="20" height="20" as="geometry" />
          </mxCell>
        </UserObject>
      </root>
    </mxGraphModel>
  </diagram>
</mxfile>
